{
.appVersion = "939";
copyright = "Copyright 2016 Google Inc. All Rights Reserved.";
customParameters = (
{
name = description;
value = "Designed by Monotype design team.";
},
{
name = license;
value = "This Font Software is licensed under the SIL Open Font License, Version 1.1. This Font Software is distributed on an \"AS IS\" BASIS, WITHOUT WARRANTIES OR CONDITIONS OF ANY KIND, either express or implied. See the SIL Open Font License for the specific language, permissions and limitations governing your use of this Font Software.";
},
{
name = licenseURL;
value = "http://scripts.sil.org/OFL";
},
{
name = vendorID;
value = GOOG;
},
{
name = trademark;
value = "Noto is a trademark of Google Inc.";
},
{
name = fsType;
value = (
);
},
{
name = panose;
value = (
2,
11,
5,
2,
4,
5,
4,
2,
2,
4
);
},
{
name = unicodeRanges;
value = (
98
);
},
{
name = codePageRanges;
value = (
1252
);
},
{
name = glyphOrder;
value = (
.notdef,
null,
uni000D,
space,
uni2D30,
uni2D31,
uni2D32,
uni2D33,
uni2D34,
uni2D35,
uni2D36,
uni2D37,
uni2D38,
uni2D39,
uni2D3A,
uni2D3B,
uni2D3C,
uni2D3D,
uni2D3E,
uni2D3F,
uni2D40,
uni2D41,
uni2D42,
uni2D43,
uni2D44,
uni2D45,
uni2D46,
uni2D47,
uni2D48,
uni2D49,
uni2D4A,
uni2D4B,
uni2D4C,
uni2D4D,
uni2D4E,
uni2D4F,
uni2D50,
uni2D51,
uni2D52,
uni2D53,
uni2D54,
uni2D55,
uni2D56,
uni2D57,
uni2D58,
uni2D59,
uni2D5A,
uni2D5B,
uni2D5C,
uni2D5D,
uni2D5E,
uni2D5F,
uni2D60,
uni2D61,
uni2D62,
uni2D63,
uni2D64,
uni2D65,
uni2D66,
uni2D67,
uni2D6F,
uni2D70,
uni2D7F,
uni2D4D2D5C,
uni2D402D5C,
uni2D4E2D40,
uni2D4E2D59,
uni2D4E2D5C,
uni2D4F2D40,
uni2D4F2D39,
uni2D4F2D38,
uni2D3C2D5C,
uni2D4F2D3C,
uni2D4F2D36,
uni2D4F2D34,
uni2D4F2D57,
uni2D4F2D4C,
uni2D4F2D3E,
uni2D4F2D59,
uni2D4F2D5C,
uni2D4F2D64,
uni2D542D5C,
uni2D592D4F,
uni2D592D5C,
uni2D5B2D5C,
uni2D5C2D59,
uni2D532D5C,
uni2D622D5C,
uni2D4C2D5C,
uni0301,
uni0302,
uni0304,
uni0306,
uni0307,
uni0323,
uni0331,
uni2D4D2D4D,
uni2D4D2D4F,
uni2D4F2D4D,
uni2D4F2D4F,
uni200D
);
}
);
date = "2016-11-10 17:38:09 +0000";

glyphs = (
{
glyphname = .notdef;
lastChange = "2016-11-10 17:37:56 +0000";
layers = (
{
layerId = "B1E53B03-7A3C-448C-A3F1-D6BA7BA0BD3F";
paths = (
{
closed = 1;
nodes = (
"1034 0 LINE",
"1034 1462 LINE",
"193 1462 LINE",
"193 0 LINE"
);
},
{
closed = 1;
nodes = (
"297 1358 LINE",
"930 1358 LINE",
"930 104 LINE",
"297 104 LINE"
);
}
);
width = 1229;
}
);
note = .notdef;
},
{
glyphname = uni2D30;
lastChange = "2016-11-10 17:37:56 +0000";
layers = (
{
layerId = "B1E53B03-7A3C-448C-A3F1-D6BA7BA0BD3F";
paths = (
{
closed = 1;
nodes = (
"569 -20 OFFCURVE",
"686 92 OFFCURVE",
"686 240 CURVE SMOOTH",
"686 388 OFFCURVE",
"568 502 OFFCURVE",
"424 502 CURVE SMOOTH",
"280 502 OFFCURVE",
"162 388 OFFCURVE",
"162 240 CURVE SMOOTH",
"162 91 OFFCURVE",
"280 -20 OFFCURVE",
"424 -20 CURVE SMOOTH"
);
},
{
closed = 1;
nodes = (
"362 121 OFFCURVE",
"305 173 OFFCURVE",
"305 240 CURVE SMOOTH",
"305 305 OFFCURVE",
"361 358 OFFCURVE",
"426 358 CURVE SMOOTH",
"489 358 OFFCURVE",
"543 304 OFFCURVE",
"543 240 CURVE SMOOTH",
"543 175 OFFCURVE",
"489 121 OFFCURVE",
"426 121 CURVE SMOOTH"
);
}
);
width = 848;
}
);
note = uni2D30;
unicode = 2D30;
},
{
glyphname = uni2D31;
lastChange = "2016-11-10 17:37:56 +0000";
layers = (
{
layerId = "B1E53B03-7A3C-448C-A3F1-D6BA7BA0BD3F";
paths = (
{
closed = 1;
nodes = (
"1013 -20 OFFCURVE",
"1140 14 OFFCURVE",
"1256 83 CURVE SMOOTH",
"1488 220 OFFCURVE",
"1628 466 OFFCURVE",
"1628 731 CURVE SMOOTH",
"1628 866 OFFCURVE",
"1594 991 OFFCURVE",
"1527 1108 CURVE SMOOTH",
"1392 1340 OFFCURVE",
"1145 1485 OFFCURVE",
"874 1485 CURVE SMOOTH",
"739 1485 OFFCURVE",
"614 1451 OFFCURVE",
"498 1384 CURVE SMOOTH",
"266 1249 OFFCURVE",
"123 1000 OFFCURVE",
"123 731 CURVE SMOOTH",
"123 599 OFFCURVE",
"156 475 OFFCURVE",
"222 359 CURVE SMOOTH",
"353 127 OFFCURVE",
"599 -20 OFFCURVE",
"874 -20 CURVE SMOOTH"
);
},
{
closed = 1;
nodes = (
"784 139 OFFCURVE",
"696 161 OFFCURVE",
"614 205 CURVE SMOOTH",
"449 292 OFFCURVE",
"336 459 OFFCURVE",
"309 651 CURVE",
"1444 651 LINE",
"1431 556 OFFCURVE",
"1398 470 OFFCURVE",
"1345 391 CURVE SMOOTH",
"1237 233 OFFCURVE",
"1065 139 OFFCURVE",
"877 139 CURVE SMOOTH"
);
},
{
closed = 1;
nodes = (
"324 909 OFFCURVE",
"358 996 OFFCURVE",
"411 1074 CURVE SMOOTH",
"517 1230 OFFCURVE",
"690 1325 OFFCURVE",
"877 1325 CURVE SMOOTH",
"969 1325 OFFCURVE",
"1056 1303 OFFCURVE",
"1139 1259 CURVE SMOOTH",
"1303 1170 OFFCURVE",
"1417 1002 OFFCURVE",
"1444 813 CURVE",
"311 813 LINE"
);
}
);
width = 1753;
}
);
note = uni2D31;
unicode = 2D31;
},
{
glyphname = uni2D32;
lastChange = "2016-11-10 17:37:56 +0000";
layers = (
{
layerId = "B1E53B03-7A3C-448C-A3F1-D6BA7BA0BD3F";
paths = (
{
closed = 1;
nodes = (
"1015 -20 OFFCURVE",
"1142 14 OFFCURVE",
"1258 83 CURVE SMOOTH",
"1490 220 OFFCURVE",
"1630 466 OFFCURVE",
"1630 731 CURVE SMOOTH",
"1630 866 OFFCURVE",
"1596 991 OFFCURVE",
"1529 1108 CURVE SMOOTH",
"1394 1340 OFFCURVE",
"1146 1485 OFFCURVE",
"877 1485 CURVE SMOOTH",
"741 1485 OFFCURVE",
"615 1451 OFFCURVE",
"498 1383 CURVE SMOOTH",
"265 1246 OFFCURVE",
"125 998 OFFCURVE",
"125 731 CURVE SMOOTH",
"125 599 OFFCURVE",
"158 475 OFFCURVE",
"223 360 CURVE SMOOTH",
"353 129 OFFCURVE",
"601 -20 OFFCURVE",
"877 -20 CURVE SMOOTH"
);
},
{
closed = 1;
nodes = (
"546 180 OFFCURVE",
"344 390 OFFCURVE",
"309 651 CURVE",
"797 651 LINE",
"797 143 LINE"
);
},
{
closed = 1;
nodes = (
"958 651 LINE",
"1444 651 LINE",
"1409 387 OFFCURVE",
"1203 177 OFFCURVE",
"958 145 CURVE"
);
},
{
closed = 1;
nodes = (
"346 1074 OFFCURVE",
"548 1284 OFFCURVE",
"797 1319 CURVE",
"797 813 LINE",
"311 813 LINE"
);
},
{
closed = 1;
nodes = (
"958 1319 LINE",
"1210 1279 OFFCURVE",
"1407 1077 OFFCURVE",
"1444 813 CURVE",
"958 813 LINE"
);
}
);
width = 1755;
}
);
note = uni2D32;
unicode = 2D32;
},
{
glyphname = uni2D33;
lastChange = "2016-11-10 17:37:56 +0000";
layers = (
{
layerId = "B1E53B03-7A3C-448C-A3F1-D6BA7BA0BD3F";
paths = (
{
closed = 1;
nodes = (
"264 0 LINE",
"694 582 LINE",
"1126 0 LINE",
"1321 0 LINE",
"793 713 LINE",
"1280 1372 LINE",
"1280 1462 LINE",
"111 1462 LINE",
"111 1370 LINE",
"598 713 LINE",
"70 0 LINE"
);
},
{
closed = 1;
nodes = (
"356 1300 LINE",
"1032 1300 LINE",
"694 844 LINE"
);
}
);
width = 1391;
}
);
note = uni2D33;
unicode = 2D33;
},
{
glyphname = uni2D34;
lastChange = "2016-11-10 17:37:56 +0000";
layers = (
{
layerId = "B1E53B03-7A3C-448C-A3F1-D6BA7BA0BD3F";
paths = (
{
closed = 1;
nodes = (
"1280 0 LINE",
"1280 90 LINE",
"793 750 LINE",
"1321 1462 LINE",
"1126 1462 LINE",
"694 881 LINE",
"264 1462 LINE",
"70 1462 LINE",
"598 750 LINE",
"111 92 LINE",
"111 0 LINE"
);
},
{
closed = 1;
nodes = (
"694 618 LINE",
"1032 162 LINE",
"356 162 LINE"
);
}
);
width = 1391;
}
);
note = uni2D34;
unicode = 2D34;
},
{
glyphname = uni2D35;
lastChange = "2016-11-10 17:37:56 +0000";
layers = (
{
layerId = "B1E53B03-7A3C-448C-A3F1-D6BA7BA0BD3F";
paths = (
{
closed = 1;
nodes = (
"1239 0 LINE",
"1239 90 LINE",
"750 731 LINE",
"1239 1372 LINE",
"1239 1462 LINE",
"70 1462 LINE",
"70 1370 LINE",
"555 731 LINE",
"70 92 LINE",
"70 0 LINE"
);
},
{
closed = 1;
nodes = (
"653 602 LINE",
"989 162 LINE",
"317 162 LINE"
);
},
{
closed = 1;
nodes = (
"317 1300 LINE",
"989 1300 LINE",
"653 858 LINE"
);
}
);
width = 1309;
}
);
note = uni2D35;
unicode = 2D35;
},
{
glyphname = uni2D36;
lastChange = "2016-11-10 17:37:56 +0000";
layers = (
{
layerId = "B1E53B03-7A3C-448C-A3F1-D6BA7BA0BD3F";
paths = (
{
closed = 1;
nodes = (
"711 0 LINE",
"711 1462 LINE",
"528 1462 LINE",
"528 0 LINE"
);
},
{
closed = 1;
nodes = (
"308 1186 OFFCURVE",
"356 1240 OFFCURVE",
"356 1325 CURVE SMOOTH",
"356 1413 OFFCURVE",
"308 1462 OFFCURVE",
"227 1462 CURVE SMOOTH",
"147 1462 OFFCURVE",
"102 1413 OFFCURVE",
"102 1325 CURVE SMOOTH",
"102 1238 OFFCURVE",
"148 1186 OFFCURVE",
"227 1186 CURVE SMOOTH"
);
},
{
closed = 1;
nodes = (
"1089 1186 OFFCURVE",
"1137 1240 OFFCURVE",
"1137 1325 CURVE SMOOTH",
"1137 1413 OFFCURVE",
"1089 1462 OFFCURVE",
"1008 1462 CURVE SMOOTH",
"929 1462 OFFCURVE",
"883 1417 OFFCURVE",
"883 1325 CURVE SMOOTH",
"883 1236 OFFCURVE",
"929 1186 OFFCURVE",
"1008 1186 CURVE SMOOTH"
);
}
);
width = 1239;
}
);
note = uni2D36;
unicode = 2D36;
},
{
glyphname = uni2D37;
lastChange = "2016-11-10 17:37:56 +0000";
layers = (
{
layerId = "B1E53B03-7A3C-448C-A3F1-D6BA7BA0BD3F";
paths = (
{
closed = 1;
nodes = (
"233 0 LINE",
"485 731 OFFCURVE",
"615 1111 OFFCURVE",
"624 1139 CURVE SMOOTH",
"633 1167 OFFCURVE",
"640 1195 OFFCURVE",
"647 1223 CURVE",
"665 1151 OFFCURVE",
"696 1051 OFFCURVE",
"741 924 CURVE SMOOTH",
"1059 0 LINE",
"1231 0 LINE",
"727 1462 LINE",
"565 1462 LINE",
"61 0 LINE"
);
}
);
width = 1292;
}
);
note = uni2D37;
unicode = 2D37;
},
{
glyphname = uni2D38;
lastChange = "2016-11-10 17:37:56 +0000";
layers = (
{
layerId = "B1E53B03-7A3C-448C-A3F1-D6BA7BA0BD3F";
paths = (
{
closed = 1;
nodes = (
"727 0 LINE",
"1231 1462 LINE",
"1059 1462 LINE",
"827 789 OFFCURVE",
"703 428 OFFCURVE",
"687 379 CURVE SMOOTH",
"671 330 OFFCURVE",
"658 284 OFFCURVE",
"647 242 CURVE",
"623 338 OFFCURVE",
"590 428 OFFCURVE",
"549 549 CURVE SMOOTH",
"233 1462 LINE",
"61 1462 LINE",
"565 0 LINE"
);
}
);
width = 1292;
}
);
note = uni2D38;
unicode = 2D38;
},
{
glyphname = uni2D39;
lastChange = "2016-11-10 17:37:33 +0000";
layers = (
{
layerId = "B1E53B03-7A3C-448C-A3F1-D6BA7BA0BD3F";
paths = (
{
closed = 1;
nodes = (
"1202 0 LINE",
"1202 162 LINE",
"381 162 LINE",
"381 651 LINE",
"1202 651 LINE",
"1202 813 LINE",
"381 813 LINE",
"381 1300 LINE",
"1202 1300 LINE",
"1202 1462 LINE",
"199 1462 LINE",
"199 0 LINE"
);
}
);
width = 1325;
}
);
note = uni2D39;
unicode = 2D39;
},
{
glyphname = uni2D3A;
lastChange = "2016-11-10 17:37:56 +0000";
layers = (
{
layerId = "B1E53B03-7A3C-448C-A3F1-D6BA7BA0BD3F";
paths = (
{
closed = 1;
nodes = (
"1126 0 LINE",
"1126 1462 LINE",
"123 1462 LINE",
"123 1300 LINE",
"944 1300 LINE",
"944 813 LINE",
"123 813 LINE",
"123 651 LINE",
"944 651 LINE",
"944 162 LINE",
"123 162 LINE",
"123 0 LINE"
);
}
);
width = 1325;
}
);
note = uni2D3A;
unicode = 2D3A;
},
{
glyphname = uni2D3B;
lastChange = "2016-11-10 17:37:56 +0000";
layers = (
{
layerId = "B1E53B03-7A3C-448C-A3F1-D6BA7BA0BD3F";
paths = (
{
closed = 1;
nodes = (
"862 963 OFFCURVE",
"979 1075 OFFCURVE",
"979 1223 CURVE SMOOTH",
"979 1371 OFFCURVE",
"861 1485 OFFCURVE",
"717 1485 CURVE SMOOTH",
"573 1485 OFFCURVE",
"455 1371 OFFCURVE",
"455 1223 CURVE SMOOTH",
"455 1074 OFFCURVE",
"573 963 OFFCURVE",
"717 963 CURVE SMOOTH"
);
},
{
closed = 1;
nodes = (
"862 -20 OFFCURVE",
"979 92 OFFCURVE",
"979 240 CURVE SMOOTH",
"979 388 OFFCURVE",
"861 502 OFFCURVE",
"717 502 CURVE SMOOTH",
"573 502 OFFCURVE",
"455 388 OFFCURVE",
"455 240 CURVE SMOOTH",
"455 91 OFFCURVE",
"573 -20 OFFCURVE",
"717 -20 CURVE SMOOTH"
);
},
{
closed = 1;
nodes = (
"655 121 OFFCURVE",
"598 173 OFFCURVE",
"598 240 CURVE SMOOTH",
"598 305 OFFCURVE",
"654 358 OFFCURVE",
"719 358 CURVE SMOOTH",
"782 358 OFFCURVE",
"836 304 OFFCURVE",
"836 240 CURVE SMOOTH",
"836 175 OFFCURVE",
"782 121 OFFCURVE",
"719 121 CURVE SMOOTH"
);
},
{
closed = 1;
nodes = (
"1352 651 LINE",
"1352 813 LINE",
"82 813 LINE",
"82 651 LINE"
);
},
{
closed = 1;
nodes = (
"655 1104 OFFCURVE",
"598 1156 OFFCURVE",
"598 1223 CURVE SMOOTH",
"598 1288 OFFCURVE",
"654 1341 OFFCURVE",
"719 1341 CURVE SMOOTH",
"782 1341 OFFCURVE",
"836 1287 OFFCURVE",
"836 1223 CURVE SMOOTH",
"836 1158 OFFCURVE",
"782 1104 OFFCURVE",
"719 1104 CURVE SMOOTH"
);
}
);
width = 1434;
}
);
note = uni2D3B;
unicode = 2D3B;
},
{
glyphname = uni2D3C;
lastChange = "2016-11-10 17:37:56 +0000";
layers = (
{
layerId = "B1E53B03-7A3C-448C-A3F1-D6BA7BA0BD3F";
paths = (
{
closed = 1;
nodes = (
"666 0 LINE",
"666 651 LINE",
"961 651 LINE",
"961 0 LINE",
"1503 0 LINE",
"1503 162 LINE",
"1143 162 LINE",
"1143 1300 LINE",
"1503 1300 LINE",
"1503 1462 LINE",
"961 1462 LINE",
"961 813 LINE",
"666 813 LINE",
"666 1462 LINE",
"123 1462 LINE",
"123 1300 LINE",
"483 1300 LINE",
"483 162 LINE",
"123 162 LINE",
"123 0 LINE"
);
}
);
width = 1626;
}
);
note = uni2D3C;
unicode = 2D3C;
},
{
glyphname = uni2D3D;
lastChange = "2016-11-10 17:37:56 +0000";
layers = (
{
layerId = "B1E53B03-7A3C-448C-A3F1-D6BA7BA0BD3F";
paths = (
{
closed = 1;
nodes = (
"291 0 LINE",
"770 610 LINE",
"1219 0 LINE",
"1413 0 LINE",
"872 741 LINE",
"1368 1372 LINE",
"1368 1462 LINE",
"199 1462 LINE",
"199 0 LINE"
);
},
{
closed = 1;
nodes = (
"378 426 OFFCURVE",
"381 539 OFFCURVE",
"381 678 CURVE SMOOTH",
"381 1300 LINE",
"1118 1300 LINE",
"373 338 LINE"
);
}
);
width = 1483;
}
);
note = uni2D3D;
unicode = 2D3D;
},
{
glyphname = uni2D3E;
lastChange = "2016-11-10 17:37:56 +0000";
layers = (
{
layerId = "B1E53B03-7A3C-448C-A3F1-D6BA7BA0BD3F";
paths = (
{
closed = 1;
nodes = (
"363 1159 OFFCURVE",
"422 1219 OFFCURVE",
"422 1323 CURVE SMOOTH",
"422 1428 OFFCURVE",
"366 1485 OFFCURVE",
"270 1485 CURVE SMOOTH",
"174 1485 OFFCURVE",
"123 1427 OFFCURVE",
"123 1323 CURVE SMOOTH",
"123 1219 OFFCURVE",
"178 1159 OFFCURVE",
"270 1159 CURVE SMOOTH"
);
},
{
closed = 1;
nodes = (
"365 -20 OFFCURVE",
"422 39 OFFCURVE",
"422 143 CURVE SMOOTH",
"422 247 OFFCURVE",
"365 305 OFFCURVE",
"270 305 CURVE SMOOTH",
"177 305 OFFCURVE",
"123 247 OFFCURVE",
"123 143 CURVE SMOOTH",
"123 39 OFFCURVE",
"177 -20 OFFCURVE",
"270 -20 CURVE SMOOTH"
);
},
{
closed = 1;
nodes = (
"838 569 OFFCURVE",
"897 629 OFFCURVE",
"897 733 CURVE SMOOTH",
"897 838 OFFCURVE",
"841 895 OFFCURVE",
"745 895 CURVE SMOOTH",
"649 895 OFFCURVE",
"598 837 OFFCURVE",
"598 733 CURVE SMOOTH",
"598 629 OFFCURVE",
"653 569 OFFCURVE",
"745 569 CURVE SMOOTH"
);
}
);
width = 1020;
}
);
note = uni2D3E;
unicode = 2D3E;
},
{
glyphname = uni2D3F;
lastChange = "2016-11-10 17:37:56 +0000";
layers = (
{
layerId = "B1E53B03-7A3C-448C-A3F1-D6BA7BA0BD3F";
paths = (
{
closed = 1;
nodes = (
"1368 0 LINE",
"1368 90 LINE",
"872 721 LINE",
"1413 1462 LINE",
"1219 1462 LINE",
"770 850 LINE",
"291 1462 LINE",
"199 1462 LINE",
"199 0 LINE"
);
},
{
closed = 1;
nodes = (
"381 684 LINE SMOOTH",
"381 852 OFFCURVE",
"378 992 OFFCURVE",
"371 1104 CURVE",
"1116 162 LINE",
"381 162 LINE"
);
}
);
width = 1483;
}
);
note = uni2D3F;
unicode = 2D3F;
},
{
glyphname = uni2D40;
lastChange = "2016-11-10 17:37:56 +0000";
layers = (
{
layerId = "B1E53B03-7A3C-448C-A3F1-D6BA7BA0BD3F";
paths = (
{
closed = 1;
nodes = (
"1015 -20 OFFCURVE",
"1142 14 OFFCURVE",
"1258 83 CURVE SMOOTH",
"1490 220 OFFCURVE",
"1630 466 OFFCURVE",
"1630 731 CURVE SMOOTH",
"1630 866 OFFCURVE",
"1596 991 OFFCURVE",
"1529 1108 CURVE SMOOTH",
"1394 1340 OFFCURVE",
"1146 1485 OFFCURVE",
"877 1485 CURVE SMOOTH",
"741 1485 OFFCURVE",
"615 1451 OFFCURVE",
"498 1383 CURVE SMOOTH",
"265 1246 OFFCURVE",
"125 998 OFFCURVE",
"125 731 CURVE SMOOTH",
"125 599 OFFCURVE",
"158 475 OFFCURVE",
"223 360 CURVE SMOOTH",
"353 129 OFFCURVE",
"601 -20 OFFCURVE",
"877 -20 CURVE SMOOTH"
);
},
{
closed = 1;
nodes = (
"696 162 OFFCURVE",
"614 198 OFFCURVE",
"540 253 CURVE SMOOTH",
"392 364 OFFCURVE",
"305 539 OFFCURVE",
"305 731 CURVE SMOOTH",
"305 827 OFFCURVE",
"326 917 OFFCURVE",
"367 1002 CURVE SMOOTH",
"450 1170 OFFCURVE",
"610 1290 OFFCURVE",
"786 1317 CURVE",
"786 147 LINE"
);
},
{
closed = 1;
nodes = (
"969 1317 LINE",
"1059 1301 OFFCURVE",
"1141 1265 OFFCURVE",
"1214 1210 CURVE SMOOTH",
"1361 1099 OFFCURVE",
"1448 922 OFFCURVE",
"1448 731 CURVE SMOOTH",
"1448 635 OFFCURVE",
"1428 545 OFFCURVE",
"1387 461 CURVE SMOOTH",
"1305 293 OFFCURVE",
"1146 175 OFFCURVE",
"969 147 CURVE"
);
}
);
width = 1755;
}
);
note = uni2D40;
unicode = 2D40;
},
{
glyphname = uni2D41;
lastChange = "2016-11-10 17:37:56 +0000";
layers = (
{
layerId = "B1E53B03-7A3C-448C-A3F1-D6BA7BA0BD3F";
paths = (
{
closed = 1;
nodes = (
"406 145 LINE",
"543 35 OFFCURVE",
"700 -20 OFFCURVE",
"877 -20 CURVE SMOOTH",
"1015 -20 OFFCURVE",
"1142 14 OFFCURVE",
"1258 83 CURVE SMOOTH",
"1490 220 OFFCURVE",
"1630 466 OFFCURVE",
"1630 731 CURVE SMOOTH",
"1630 910 OFFCURVE",
"1567 1073 OFFCURVE",
"1462 1202 CURVE",
"1630 1370 LINE",
"1516 1485 LINE",
"1348 1317 LINE",
"1219 1421 OFFCURVE",
"1056 1485 OFFCURVE",
"877 1485 CURVE SMOOTH",
"741 1485 OFFCURVE",
"615 1451 OFFCURVE",
"498 1383 CURVE SMOOTH",
"265 1246 OFFCURVE",
"125 998 OFFCURVE",
"125 731 CURVE SMOOTH",
"125 553 OFFCURVE",
"180 396 OFFCURVE",
"291 260 CURVE",
"125 94 LINE",
"240 -20 LINE"
);
},
{
closed = 1;
nodes = (
"748 139 OFFCURVE",
"630 181 OFFCURVE",
"524 264 CURVE",
"1339 1079 LINE",
"1412 974 OFFCURVE",
"1448 858 OFFCURVE",
"1448 731 CURVE SMOOTH",
"1448 622 OFFCURVE",
"1423 523 OFFCURVE",
"1374 432 CURVE SMOOTH",
"1274 251 OFFCURVE",
"1086 139 OFFCURVE",
"877 139 CURVE SMOOTH"
);
},
{
closed = 1;
nodes = (
"341 493 OFFCURVE",
"305 609 OFFCURVE",
"305 731 CURVE SMOOTH",
"305 839 OFFCURVE",
"330 939 OFFCURVE",
"381 1031 CURVE SMOOTH",
"481 1215 OFFCURVE",
"666 1325 OFFCURVE",
"877 1325 CURVE SMOOTH",
"1004 1325 OFFCURVE",
"1122 1283 OFFCURVE",
"1229 1198 CURVE",
"414 383 LINE"
);
}
);
width = 1755;
}
);
note = uni2D41;
unicode = 2D41;
},
{
glyphname = uni2D42;
lastChange = "2016-11-10 17:37:56 +0000";
layers = (
{
layerId = "B1E53B03-7A3C-448C-A3F1-D6BA7BA0BD3F";
paths = (
{
closed = 1;
nodes = (
"370 1214 OFFCURVE",
"424 1269 OFFCURVE",
"424 1358 CURVE SMOOTH",
"424 1446 OFFCURVE",
"376 1501 OFFCURVE",
"289 1501 CURVE SMOOTH",
"205 1501 OFFCURVE",
"160 1449 OFFCURVE",
"160 1358 CURVE SMOOTH",
"160 1265 OFFCURVE",
"210 1214 OFFCURVE",
"289 1214 CURVE SMOOTH"
);
},
{
closed = 1;
nodes = (
"373 -39 OFFCURVE",
"424 13 OFFCURVE",
"424 104 CURVE SMOOTH",
"424 195 OFFCURVE",
"376 248 OFFCURVE",
"289 248 CURVE SMOOTH",
"204 248 OFFCURVE",
"160 196 OFFCURVE",
"160 104 CURVE SMOOTH",
"160 12 OFFCURVE",
"208 -39 OFFCURVE",
"289 -39 CURVE SMOOTH"
);
},
{
closed = 1;
nodes = (
"372 379 OFFCURVE",
"424 433 OFFCURVE",
"424 524 CURVE SMOOTH",
"424 616 OFFCURVE",
"374 666 OFFCURVE",
"289 666 CURVE SMOOTH",
"203 666 OFFCURVE",
"160 619 OFFCURVE",
"160 524 CURVE SMOOTH",
"160 432 OFFCURVE",
"209 379 OFFCURVE",
"289 379 CURVE SMOOTH"
);
},
{
closed = 1;
nodes = (
"373 797 OFFCURVE",
"424 849 OFFCURVE",
"424 940 CURVE SMOOTH",
"424 1029 OFFCURVE",
"373 1083 OFFCURVE",
"289 1083 CURVE SMOOTH",
"208 1083 OFFCURVE",
"160 1031 OFFCURVE",
"160 940 CURVE SMOOTH",
"160 848 OFFCURVE",
"208 797 OFFCURVE",
"289 797 CURVE SMOOTH"
);
}
);
width = 584;
}
);
note = uni2D42;
unicode = 2D42;
},
{
glyphname = uni2D43;
lastChange = "2016-11-10 17:37:56 +0000";
layers = (
{
layerId = "B1E53B03-7A3C-448C-A3F1-D6BA7BA0BD3F";
paths = (
{
closed = 1;
nodes = (
"264 0 LINE",
"653 584 LINE",
"1044 0 LINE",
"1239 0 LINE",
"752 731 LINE",
"1239 1462 LINE",
"1044 1462 LINE",
"70 0 LINE"
);
}
);
width = 1309;
}
);
note = uni2D43;
unicode = 2D43;
},
{
glyphname = uni2D44;
lastChange = "2016-11-10 17:37:56 +0000";
layers = (
{
layerId = "B1E53B03-7A3C-448C-A3F1-D6BA7BA0BD3F";
paths = (
{
closed = 1;
nodes = (
"381 0 LINE",
"381 651 LINE",
"1104 651 LINE",
"1104 0 LINE",
"1286 0 LINE",
"1286 813 LINE",
"834 813 LINE",
"834 1462 LINE",
"651 1462 LINE",
"651 813 LINE",
"199 813 LINE",
"199 0 LINE"
);
}
);
width = 1485;
}
);
note = uni2D44;
unicode = 2D44;
},
{
glyphname = uni2D45;
lastChange = "2016-11-10 17:37:56 +0000";
layers = (
{
layerId = "B1E53B03-7A3C-448C-A3F1-D6BA7BA0BD3F";
paths = (
{
closed = 1;
nodes = (
"264 0 LINE",
"653 584 LINE",
"1044 0 LINE",
"1239 0 LINE",
"752 731 LINE",
"1239 1462 LINE",
"1044 1462 LINE",
"862 1190 LINE SMOOTH",
"842 1160 OFFCURVE",
"797 1084 OFFCURVE",
"727 963 CURVE",
"723 963 LINE",
"731 1063 OFFCURVE",
"735 1139 OFFCURVE",
"735 1192 CURVE SMOOTH",
"735 1462 LINE",
"573 1462 LINE",
"573 1186 LINE SMOOTH",
"573 1147 OFFCURVE",
"578 1073 OFFCURVE",
"588 963 CURVE",
"584 963 LINE",
"541 1040 OFFCURVE",
"495 1115 OFFCURVE",
"448 1186 CURVE SMOOTH",
"401 1257 OFFCURVE",
"339 1349 OFFCURVE",
"264 1462 CURVE",
"70 1462 LINE",
"557 731 LINE",
"70 0 LINE"
);
}
);
width = 1309;
}
);
note = uni2D45;
unicode = 2D45;
},
{
glyphname = uni2D46;
lastChange = "2016-11-10 17:37:56 +0000";
layers = (
{
layerId = "B1E53B03-7A3C-448C-A3F1-D6BA7BA0BD3F";
paths = (
{
closed = 1;
nodes = (
"1238 127 OFFCURVE",
"1292 188 OFFCURVE",
"1292 291 CURVE SMOOTH",
"1292 394 OFFCURVE",
"1237 453 OFFCURVE",
"1141 453 CURVE SMOOTH",
"1046 453 OFFCURVE",
"993 395 OFFCURVE",
"993 291 CURVE SMOOTH",
"993 188 OFFCURVE",
"1045 127 OFFCURVE",
"1141 127 CURVE SMOOTH"
);
},
{
closed = 1;
nodes = (
"384 127 OFFCURVE",
"438 188 OFFCURVE",
"438 291 CURVE SMOOTH",
"438 394 OFFCURVE",
"383 453 OFFCURVE",
"287 453 CURVE SMOOTH",
"192 453 OFFCURVE",
"139 395 OFFCURVE",
"139 291 CURVE SMOOTH",
"139 188 OFFCURVE",
"191 127 OFFCURVE",
"287 127 CURVE SMOOTH"
);
},
{
closed = 1;
nodes = (
"380 1008 OFFCURVE",
"438 1070 OFFCURVE",
"438 1171 CURVE SMOOTH",
"438 1275 OFFCURVE",
"384 1333 OFFCURVE",
"287 1333 CURVE SMOOTH",
"190 1333 OFFCURVE",
"139 1275 OFFCURVE",
"139 1171 CURVE SMOOTH",
"139 1067 OFFCURVE",
"195 1008 OFFCURVE",
"287 1008 CURVE SMOOTH"
);
},
{
closed = 1;
nodes = (
"1234 1008 OFFCURVE",
"1292 1070 OFFCURVE",
"1292 1171 CURVE SMOOTH",
"1292 1275 OFFCURVE",
"1238 1333 OFFCURVE",
"1141 1333 CURVE SMOOTH",
"1044 1333 OFFCURVE",
"993 1275 OFFCURVE",
"993 1171 CURVE SMOOTH",
"993 1067 OFFCURVE",
"1049 1008 OFFCURVE",
"1141 1008 CURVE SMOOTH"
);
}
);
width = 1432;
}
);
note = uni2D46;
unicode = 2D46;
},
{
glyphname = uni2D47;
lastChange = "2016-11-10 17:37:56 +0000";
layers = (
{
layerId = "B1E53B03-7A3C-448C-A3F1-D6BA7BA0BD3F";
paths = (
{
closed = 1;
nodes = (
"1368 0 LINE",
"1368 162 LINE",
"479 162 LINE",
"1368 1372 LINE",
"1368 1462 LINE",
"199 1462 LINE",
"199 0 LINE"
);
},
{
closed = 1;
nodes = (
"377 438 OFFCURVE",
"381 594 OFFCURVE",
"381 743 CURVE SMOOTH",
"381 1300 LINE",
"1120 1300 LINE",
"369 276 LINE"
);
}
);
width = 1491;
}
);
note = uni2D47;
unicode = 2D47;
},
{
glyphname = uni2D48;
lastChange = "2016-11-10 17:37:56 +0000";
layers = (
{
layerId = "B1E53B03-7A3C-448C-A3F1-D6BA7BA0BD3F";
paths = (
{
closed = 1;
nodes = (
"1322 594 OFFCURVE",
"1370 648 OFFCURVE",
"1370 733 CURVE SMOOTH",
"1370 818 OFFCURVE",
"1325 870 OFFCURVE",
"1241 870 CURVE SMOOTH",
"1158 870 OFFCURVE",
"1116 824 OFFCURVE",
"1116 733 CURVE SMOOTH",
"1116 644 OFFCURVE",
"1162 594 OFFCURVE",
"1241 594 CURVE SMOOTH"
);
},
{
closed = 1;
nodes = (
"355 594 OFFCURVE",
"403 648 OFFCURVE",
"403 733 CURVE SMOOTH",
"403 818 OFFCURVE",
"358 870 OFFCURVE",
"274 870 CURVE SMOOTH",
"191 870 OFFCURVE",
"150 824 OFFCURVE",
"150 733 CURVE SMOOTH",
"150 645 OFFCURVE",
"197 594 OFFCURVE",
"274 594 CURVE SMOOTH"
);
},
{
closed = 1;
nodes = (
"839 594 OFFCURVE",
"887 648 OFFCURVE",
"887 733 CURVE SMOOTH",
"887 818 OFFCURVE",
"842 870 OFFCURVE",
"758 870 CURVE SMOOTH",
"675 870 OFFCURVE",
"633 824 OFFCURVE",
"633 733 CURVE SMOOTH",
"633 644 OFFCURVE",
"679 594 OFFCURVE",
"758 594 CURVE SMOOTH"
);
}
);
width = 1520;
}
);
note = uni2D48;
unicode = 2D48;
},
{
glyphname = uni2D49;
lastChange = "2016-11-10 17:37:33 +0000";
layers = (
{
layerId = "B1E53B03-7A3C-448C-A3F1-D6BA7BA0BD3F";
paths = (
{
closed = 1;
nodes = (
"854 152 LINE",
"550 307 OFFCURVE",
"374 396 OFFCURVE",
"326 418 CURVE",
"415 459 OFFCURVE",
"591 546 OFFCURVE",
"854 678 CURVE",
"854 797 LINE",
"547 956 LINE SMOOTH",
"506 978 OFFCURVE",
"439 1010 OFFCURVE",
"348 1053 CURVE",
"416 1084 OFFCURVE",
"585 1171 OFFCURVE",
"854 1313 CURVE",
"854 1485 LINE",
"123 1114 LINE",
"123 997 LINE",
"503 801 LINE",
"635 737 LINE",
"554 699 OFFCURVE",
"383 612 OFFCURVE",
"123 477 CURVE",
"123 360 LINE",
"854 -20 LINE"
);
}
);
width = 977;
}
);
note = uni2D49;
unicode = 2D49;
},
{
glyphname = uni2D4A;
lastChange = "2016-11-10 17:37:56 +0000";
layers = (
{
layerId = "B1E53B03-7A3C-448C-A3F1-D6BA7BA0BD3F";
paths = (
{
closed = 1;
nodes = (
"944 0 LINE",
"944 162 LINE",
"614 162 LINE",
"614 1300 LINE",
"944 1300 LINE",
"944 1462 LINE",
"102 1462 LINE",
"102 1300 LINE",
"432 1300 LINE",
"432 162 LINE",
"102 162 LINE",
"102 0 LINE"
);
}
);
width = 1047;
}
);
note = uni2D4A;
unicode = 2D4A;
},
{
glyphname = uni2D4B;
lastChange = "2016-11-10 17:37:56 +0000";
layers = (
{
layerId = "B1E53B03-7A3C-448C-A3F1-D6BA7BA0BD3F";
paths = (
{
closed = 1;
nodes = (
"343 -20 OFFCURVE",
"542 132 OFFCURVE",
"643 379 CURVE",
"743 132 OFFCURVE",
"942 -20 OFFCURVE",
"1161 -20 CURVE",
"1161 139 LINE",
"1085 139 OFFCURVE",
"1014 166 OFFCURVE",
"947 219 CURVE SMOOTH",
"814 325 OFFCURVE",
"733 519 OFFCURVE",
"733 731 CURVE SMOOTH",
"733 838 OFFCURVE",
"752 937 OFFCURVE",
"791 1029 CURVE SMOOTH",
"867 1213 OFFCURVE",
"1008 1325 OFFCURVE",
"1161 1325 CURVE",
"1161 1485 LINE",
"942 1485 OFFCURVE",
"746 1333 OFFCURVE",
"643 1081 CURVE",
"540 1332 OFFCURVE",
"339 1485 OFFCURVE",
"123 1485 CURVE",
"123 1325 LINE",
"199 1325 OFFCURVE",
"270 1299 OFFCURVE",
"337 1246 CURVE SMOOTH",
"470 1141 OFFCURVE",
"553 943 OFFCURVE",
"553 731 CURVE SMOOTH",
"553 625 OFFCURVE",
"534 527 OFFCURVE",
"496 436 CURVE SMOOTH",
"419 254 OFFCURVE",
"276 139 OFFCURVE",
"123 139 CURVE",
"123 -20 LINE"
);
}
);
width = 1284;
}
);
note = uni2D4B;
unicode = 2D4B;
},
{
glyphname = uni2D4C;
lastChange = "2016-11-10 17:37:56 +0000";
layers = (
{
layerId = "B1E53B03-7A3C-448C-A3F1-D6BA7BA0BD3F";
paths = (
{
closed = 1;
nodes = (
"625 0 LINE",
"625 381 LINE",
"981 381 LINE",
"981 0 LINE",
"1163 0 LINE",
"1163 381 LINE",
"1513 381 LINE",
"1513 543 LINE",
"1163 543 LINE",
"1163 920 LINE",
"1513 920 LINE",
"1513 1081 LINE",
"1163 1081 LINE",
"1163 1462 LINE",
"981 1462 LINE",
"981 1081 LINE",
"625 1081 LINE",
"625 1462 LINE",
"442 1462 LINE",
"442 1081 LINE",
"92 1081 LINE",
"92 920 LINE",
"442 920 LINE",
"442 543 LINE",
"92 543 LINE",
"92 381 LINE",
"442 381 LINE",
"442 0 LINE"
);
},
{
closed = 1;
nodes = (
"625 920 LINE",
"981 920 LINE",
"981 543 LINE",
"625 543 LINE"
);
}
);
width = 1606;
}
);
note = uni2D4C;
unicode = 2D4C;
},
{
glyphname = uni2D4D;
lastChange = "2016-11-10 17:37:56 +0000";
layers = (
{
layerId = "B1E53B03-7A3C-448C-A3F1-D6BA7BA0BD3F";
paths = (
{
closed = 1;
nodes = (
"383 0 LINE",
"383 215 LINE",
"641 784 LINE",
"681 882 LINE",
"717 987 LINE",
"723 987 LINE",
"719 937 OFFCURVE",
"717 874 OFFCURVE",
"717 797 CURVE SMOOTH",
"717 0 LINE",
"899 0 LINE",
"899 1462 LINE",
"717 1462 LINE",
"717 1264 LINE",
"467 711 LINE SMOOTH",
"452 680 OFFCURVE",
"437 644 OFFCURVE",
"423 603 CURVE SMOOTH",
"409 562 OFFCURVE",
"396 524 OFFCURVE",
"383 489 CURVE",
"377 489 LINE",
"381 613 OFFCURVE",
"383 707 OFFCURVE",
"383 772 CURVE SMOOTH",
"383 1462 LINE",
"199 1462 LINE",
"199 0 LINE"
);
}
);
width = 1098;
}
);
note = uni2D4D;
unicode = 2D4D;
},
{
glyphname = uni2D4E;
lastChange = "2016-11-10 17:37:33 +0000";
layers = (
{
layerId = "B1E53B03-7A3C-448C-A3F1-D6BA7BA0BD3F";
paths = (
{
closed = 1;
nodes = (
"1202 0 LINE",
"1202 162 LINE",
"381 162 LINE",
"381 1300 LINE",
"1202 1300 LINE",
"1202 1462 LINE",
"199 1462 LINE",
"199 0 LINE"
);
}
);
width = 1325;
}
);
note = uni2D4E;
unicode = 2D4E;
},
{
glyphname = uni2D4F;
lastChange = "2016-11-10 17:37:56 +0000";
layers = (
{
layerId = "B1E53B03-7A3C-448C-A3F1-D6BA7BA0BD3F";
paths = (
{
closed = 1;
nodes = (
"381 0 LINE",
"381 1462 LINE",
"199 1462 LINE",
"199 0 LINE"
);
}
);
width = 580;
}
);
note = uni2D4F;
unicode = 2D4F;
},
{
glyphname = uni2D50;
lastChange = "2016-11-10 17:37:56 +0000";
layers = (
{
layerId = "B1E53B03-7A3C-448C-A3F1-D6BA7BA0BD3F";
paths = (
{
closed = 1;
nodes = (
"874 0 LINE",
"874 442 LINE",
"1452 442 LINE",
"1452 604 LINE",
"874 604 LINE",
"874 858 LINE",
"1452 858 LINE",
"1452 1020 LINE",
"874 1020 LINE",
"874 1462 LINE",
"692 1462 LINE",
"692 1020 LINE",
"113 1020 LINE",
"113 858 LINE",
"692 858 LINE",
"692 604 LINE",
"113 604 LINE",
"113 442 LINE",
"692 442 LINE",
"692 0 LINE"
);
}
);
width = 1567;
}
);
note = uni2D50;
unicode = 2D50;
},
{
glyphname = uni2D51;
lastChange = "2016-11-10 17:37:56 +0000";
layers = (
{
layerId = "B1E53B03-7A3C-448C-A3F1-D6BA7BA0BD3F";
paths = (
{
closed = 1;
nodes = (
"371 0 LINE",
"371 1462 LINE",
"188 1462 LINE",
"188 0 LINE"
);
},
{
closed = 1;
nodes = (
"342 -360 OFFCURVE",
"385 -317 OFFCURVE",
"385 -246 CURVE SMOOTH",
"385 -166 OFFCURVE",
"336 -131 OFFCURVE",
"279 -131 CURVE SMOOTH",
"220 -131 OFFCURVE",
"172 -166 OFFCURVE",
"172 -246 CURVE SMOOTH",
"172 -318 OFFCURVE",
"215 -360 OFFCURVE",
"279 -360 CURVE SMOOTH"
);
}
);
width = 559;
}
);
note = uni2D51;
unicode = 2D51;
},
{
glyphname = uni2D52;
lastChange = "2016-11-10 17:37:56 +0000";
layers = (
{
layerId = "B1E53B03-7A3C-448C-A3F1-D6BA7BA0BD3F";
paths = (
{
closed = 1;
nodes = (
"664 -20 OFFCURVE",
"750 -2 OFFCURVE",
"824 35 CURVE SMOOTH",
"971 108 OFFCURVE",
"1055 249 OFFCURVE",
"1055 410 CURVE SMOOTH",
"1055 669 OFFCURVE",
"865 831 OFFCURVE",
"565 831 CURVE SMOOTH",
"537 831 LINE",
"506 829 LINE",
"989 1317 LINE",
"989 1462 LINE",
"145 1462 LINE",
"145 1303 LINE",
"760 1303 LINE",
"303 838 LINE SMOOTH",
"116 645 OFFCURVE",
"76 555 OFFCURVE",
"76 403 CURVE SMOOTH",
"76 139 OFFCURVE",
"264 -20 OFFCURVE",
"565 -20 CURVE SMOOTH"
);
},
{
closed = 1;
nodes = (
"374 131 OFFCURVE",
"260 233 OFFCURVE",
"260 408 CURVE SMOOTH",
"260 576 OFFCURVE",
"376 684 OFFCURVE",
"567 684 CURVE SMOOTH",
"747 684 OFFCURVE",
"870 572 OFFCURVE",
"870 424 CURVE SMOOTH",
"870 241 OFFCURVE",
"758 131 OFFCURVE",
"567 131 CURVE SMOOTH"
);
}
);
width = 1128;
}
);
note = uni2D52;
unicode = 2D52;
},
{
glyphname = uni2D53;
lastChange = "2016-11-10 17:37:56 +0000";
layers = (
{
layerId = "B1E53B03-7A3C-448C-A3F1-D6BA7BA0BD3F";
paths = (
{
closed = 1;
nodes = (
"569 963 OFFCURVE",
"686 1075 OFFCURVE",
"686 1223 CURVE SMOOTH",
"686 1371 OFFCURVE",
"568 1485 OFFCURVE",
"424 1485 CURVE SMOOTH",
"280 1485 OFFCURVE",
"162 1371 OFFCURVE",
"162 1223 CURVE SMOOTH",
"162 1074 OFFCURVE",
"280 963 OFFCURVE",
"424 963 CURVE SMOOTH"
);
},
{
closed = 1;
nodes = (
"569 -20 OFFCURVE",
"686 92 OFFCURVE",
"686 240 CURVE SMOOTH",
"686 388 OFFCURVE",
"568 502 OFFCURVE",
"424 502 CURVE SMOOTH",
"280 502 OFFCURVE",
"162 388 OFFCURVE",
"162 240 CURVE SMOOTH",
"162 91 OFFCURVE",
"280 -20 OFFCURVE",
"424 -20 CURVE SMOOTH"
);
},
{
closed = 1;
nodes = (
"362 121 OFFCURVE",
"305 173 OFFCURVE",
"305 240 CURVE SMOOTH",
"305 305 OFFCURVE",
"361 358 OFFCURVE",
"426 358 CURVE SMOOTH",
"489 358 OFFCURVE",
"543 304 OFFCURVE",
"543 240 CURVE SMOOTH",
"543 175 OFFCURVE",
"489 121 OFFCURVE",
"426 121 CURVE SMOOTH"
);
},
{
closed = 1;
nodes = (
"362 1104 OFFCURVE",
"305 1156 OFFCURVE",
"305 1223 CURVE SMOOTH",
"305 1288 OFFCURVE",
"361 1341 OFFCURVE",
"426 1341 CURVE SMOOTH",
"489 1341 OFFCURVE",
"543 1287 OFFCURVE",
"543 1223 CURVE SMOOTH",
"543 1158 OFFCURVE",
"489 1104 OFFCURVE",
"426 1104 CURVE SMOOTH"
);
}
);
width = 848;
}
);
note = uni2D53;
unicode = 2D53;
},
{
glyphname = uni2D54;
lastChange = "2016-11-10 17:37:56 +0000";
layers = (
{
layerId = "B1E53B03-7A3C-448C-A3F1-D6BA7BA0BD3F";
paths = (
{
closed = 1;
nodes = (
"1015 -20 OFFCURVE",
"1142 14 OFFCURVE",
"1258 83 CURVE SMOOTH",
"1490 220 OFFCURVE",
"1630 466 OFFCURVE",
"1630 731 CURVE SMOOTH",
"1630 866 OFFCURVE",
"1596 991 OFFCURVE",
"1529 1108 CURVE SMOOTH",
"1394 1340 OFFCURVE",
"1146 1485 OFFCURVE",
"877 1485 CURVE SMOOTH",
"741 1485 OFFCURVE",
"615 1451 OFFCURVE",
"498 1383 CURVE SMOOTH",
"265 1246 OFFCURVE",
"125 998 OFFCURVE",
"125 731 CURVE SMOOTH",
"125 599 OFFCURVE",
"158 475 OFFCURVE",
"223 360 CURVE SMOOTH",
"353 129 OFFCURVE",
"601 -20 OFFCURVE",
"877 -20 CURVE SMOOTH"
);
},
{
closed = 1;
nodes = (
"774 139 OFFCURVE",
"679 166 OFFCURVE",
"590 219 CURVE SMOOTH",
"413 325 OFFCURVE",
"305 520 OFFCURVE",
"305 731 CURVE SMOOTH",
"305 837 OFFCURVE",
"331 936 OFFCURVE",
"382 1029 CURVE SMOOTH",
"485 1213 OFFCURVE",
"672 1325 OFFCURVE",
"877 1325 CURVE SMOOTH",
"980 1325 OFFCURVE",
"1075 1299 OFFCURVE",
"1163 1246 CURVE SMOOTH",
"1338 1140 OFFCURVE",
"1448 943 OFFCURVE",
"1448 731 CURVE SMOOTH",
"1448 626 OFFCURVE",
"1423 527 OFFCURVE",
"1372 436 CURVE SMOOTH",
"1271 252 OFFCURVE",
"1081 139 OFFCURVE",
"877 139 CURVE SMOOTH"
);
}
);
width = 1755;
}
);
note = uni2D54;
unicode = 2D54;
},
{
glyphname = uni2D55;
lastChange = "2016-11-10 17:37:56 +0000";
layers = (
{
layerId = "B1E53B03-7A3C-448C-A3F1-D6BA7BA0BD3F";
paths = (
{
closed = 1;
nodes = (
"1628 55 LINE",
"1446 238 LINE",
"1567 375 OFFCURVE",
"1630 552 OFFCURVE",
"1630 731 CURVE SMOOTH",
"1630 866 OFFCURVE",
"1597 991 OFFCURVE",
"1530 1108 CURVE SMOOTH",
"1396 1341 OFFCURVE",
"1148 1485 OFFCURVE",
"879 1485 CURVE SMOOTH",
"744 1485 OFFCURVE",
"619 1451 OFFCURVE",
"503 1384 CURVE SMOOTH",
"270 1249 OFFCURVE",
"125 1002 OFFCURVE",
"125 731 CURVE SMOOTH",
"125 599 OFFCURVE",
"158 475 OFFCURVE",
"224 360 CURVE SMOOTH",
"355 128 OFFCURVE",
"602 -20 OFFCURVE",
"879 -20 CURVE SMOOTH",
"1044 -20 OFFCURVE",
"1218 38 OFFCURVE",
"1327 129 CURVE",
"1513 -59 LINE"
);
},
{
closed = 1;
nodes = (
"776 139 OFFCURVE",
"680 166 OFFCURVE",
"591 219 CURVE SMOOTH",
"412 325 OFFCURVE",
"305 518 OFFCURVE",
"305 731 CURVE SMOOTH",
"305 836 OFFCURVE",
"331 935 OFFCURVE",
"382 1028 CURVE SMOOTH",
"485 1212 OFFCURVE",
"674 1325 OFFCURVE",
"879 1325 CURVE SMOOTH",
"980 1325 OFFCURVE",
"1075 1299 OFFCURVE",
"1162 1247 CURVE SMOOTH",
"1337 1142 OFFCURVE",
"1448 943 OFFCURVE",
"1448 731 CURVE SMOOTH",
"1448 588 OFFCURVE",
"1406 465 OFFCURVE",
"1321 360 CURVE",
"932 754 LINE",
"817 639 LINE",
"1206 248 LINE",
"1106 175 OFFCURVE",
"997 139 OFFCURVE",
"879 139 CURVE SMOOTH"
);
}
);
width = 1755;
}
);
note = uni2D55;
unicode = 2D55;
},
{
glyphname = uni2D56;
lastChange = "2016-11-10 17:37:56 +0000";
layers = (
{
layerId = "B1E53B03-7A3C-448C-A3F1-D6BA7BA0BD3F";
paths = (
{
closed = 1;
nodes = (
"834 0 LINE",
"834 610 LINE",
"1286 610 LINE",
"1286 1462 LINE",
"1104 1462 LINE",
"1104 772 LINE",
"381 772 LINE",
"381 1462 LINE",
"199 1462 LINE",
"199 610 LINE",
"651 610 LINE",
"651 0 LINE"
);
}
);
width = 1485;
}
);
note = uni2D56;
unicode = 2D56;
},
{
glyphname = uni2D57;
lastChange = "2016-11-10 17:37:56 +0000";
layers = (
{
layerId = "B1E53B03-7A3C-448C-A3F1-D6BA7BA0BD3F";
paths = (
{
closed = 1;
nodes = (
"390 571 OFFCURVE",
"449 631 OFFCURVE",
"449 735 CURVE SMOOTH",
"449 840 OFFCURVE",
"393 897 OFFCURVE",
"297 897 CURVE SMOOTH",
"201 897 OFFCURVE",
"150 839 OFFCURVE",
"150 735 CURVE SMOOTH",
"150 631 OFFCURVE",
"205 571 OFFCURVE",
"297 571 CURVE SMOOTH"
);
},
{
closed = 1;
nodes = (
"393 41 OFFCURVE",
"449 101 OFFCURVE",
"449 205 CURVE SMOOTH",
"449 309 OFFCURVE",
"392 367 OFFCURVE",
"297 367 CURVE SMOOTH",
"204 367 OFFCURVE",
"150 309 OFFCURVE",
"150 205 CURVE SMOOTH",
"150 100 OFFCURVE",
"204 41 OFFCURVE",
"297 41 CURVE SMOOTH"
);
},
{
closed = 1;
nodes = (
"393 1102 OFFCURVE",
"449 1162 OFFCURVE",
"449 1266 CURVE SMOOTH",
"449 1373 OFFCURVE",
"390 1427 OFFCURVE",
"297 1427 CURVE SMOOTH",
"204 1427 OFFCURVE",
"150 1370 OFFCURVE",
"150 1266 CURVE SMOOTH",
"150 1161 OFFCURVE",
"204 1102 OFFCURVE",
"297 1102 CURVE SMOOTH"
);
}
);
width = 598;
}
);
note = uni2D57;
unicode = 2D57;
},
{
glyphname = uni2D58;
lastChange = "2016-11-10 17:37:56 +0000";
layers = (
{
layerId = "B1E53B03-7A3C-448C-A3F1-D6BA7BA0BD3F";
paths = (
{
closed = 1;
nodes = (
"1257 1022 OFFCURVE",
"1313 1082 OFFCURVE",
"1313 1186 CURVE SMOOTH",
"1313 1290 OFFCURVE",
"1256 1348 OFFCURVE",
"1161 1348 CURVE SMOOTH",
"1068 1348 OFFCURVE",
"1014 1290 OFFCURVE",
"1014 1186 CURVE SMOOTH",
"1014 1081 OFFCURVE",
"1068 1022 OFFCURVE",
"1161 1022 CURVE SMOOTH"
);
},
{
closed = 1;
nodes = (
"386 125 OFFCURVE",
"440 186 OFFCURVE",
"440 289 CURVE SMOOTH",
"440 392 OFFCURVE",
"385 451 OFFCURVE",
"289 451 CURVE SMOOTH",
"194 451 OFFCURVE",
"141 393 OFFCURVE",
"141 289 CURVE SMOOTH",
"141 186 OFFCURVE",
"193 125 OFFCURVE",
"289 125 CURVE SMOOTH"
);
},
{
closed = 1;
nodes = (
"1257 125 OFFCURVE",
"1313 185 OFFCURVE",
"1313 289 CURVE SMOOTH",
"1313 393 OFFCURVE",
"1256 451 OFFCURVE",
"1161 451 CURVE SMOOTH",
"1068 451 OFFCURVE",
"1014 393 OFFCURVE",
"1014 289 CURVE SMOOTH",
"1014 184 OFFCURVE",
"1068 125 OFFCURVE",
"1161 125 CURVE SMOOTH"
);
},
{
closed = 1;
nodes = (
"818 573 OFFCURVE",
"877 633 OFFCURVE",
"877 737 CURVE SMOOTH",
"877 842 OFFCURVE",
"821 899 OFFCURVE",
"725 899 CURVE SMOOTH",
"629 899 OFFCURVE",
"578 841 OFFCURVE",
"578 737 CURVE SMOOTH",
"578 633 OFFCURVE",
"633 573 OFFCURVE",
"725 573 CURVE SMOOTH"
);
},
{
closed = 1;
nodes = (
"386 1022 OFFCURVE",
"440 1083 OFFCURVE",
"440 1186 CURVE SMOOTH",
"440 1289 OFFCURVE",
"385 1348 OFFCURVE",
"289 1348 CURVE SMOOTH",
"194 1348 OFFCURVE",
"141 1290 OFFCURVE",
"141 1186 CURVE SMOOTH",
"141 1083 OFFCURVE",
"193 1022 OFFCURVE",
"289 1022 CURVE SMOOTH"
);
}
);
width = 1454;
}
);
note = uni2D58;
unicode = 2D58;
},
{
glyphname = uni2D59;
lastChange = "2016-11-10 17:37:56 +0000";
layers = (
{
layerId = "B1E53B03-7A3C-448C-A3F1-D6BA7BA0BD3F";
paths = (
{
closed = 1;
nodes = (
"1015 -20 OFFCURVE",
"1142 14 OFFCURVE",
"1258 83 CURVE SMOOTH",
"1490 220 OFFCURVE",
"1630 466 OFFCURVE",
"1630 731 CURVE SMOOTH",
"1630 866 OFFCURVE",
"1596 991 OFFCURVE",
"1529 1108 CURVE SMOOTH",
"1394 1340 OFFCURVE",
"1146 1485 OFFCURVE",
"877 1485 CURVE SMOOTH",
"741 1485 OFFCURVE",
"615 1451 OFFCURVE",
"498 1383 CURVE SMOOTH",
"265 1246 OFFCURVE",
"125 998 OFFCURVE",
"125 731 CURVE SMOOTH",
"125 599 OFFCURVE",
"158 475 OFFCURVE",
"223 360 CURVE SMOOTH",
"353 129 OFFCURVE",
"601 -20 OFFCURVE",
"877 -20 CURVE SMOOTH"
);
},
{
closed = 1;
nodes = (
"774 139 OFFCURVE",
"679 166 OFFCURVE",
"590 219 CURVE SMOOTH",
"413 325 OFFCURVE",
"305 520 OFFCURVE",
"305 731 CURVE SMOOTH",
"305 837 OFFCURVE",
"331 936 OFFCURVE",
"382 1029 CURVE SMOOTH",
"485 1213 OFFCURVE",
"672 1325 OFFCURVE",
"877 1325 CURVE SMOOTH",
"980 1325 OFFCURVE",
"1075 1299 OFFCURVE",
"1163 1246 CURVE SMOOTH",
"1338 1140 OFFCURVE",
"1448 943 OFFCURVE",
"1448 731 CURVE SMOOTH",
"1448 626 OFFCURVE",
"1423 527 OFFCURVE",
"1372 436 CURVE SMOOTH",
"1271 252 OFFCURVE",
"1081 139 OFFCURVE",
"877 139 CURVE SMOOTH"
);
},
{
closed = 1;
nodes = (
"970 567 OFFCURVE",
"1042 643 OFFCURVE",
"1042 731 CURVE SMOOTH",
"1042 820 OFFCURVE",
"970 897 OFFCURVE",
"877 897 CURVE SMOOTH",
"785 897 OFFCURVE",
"713 822 OFFCURVE",
"713 731 CURVE SMOOTH",
"713 644 OFFCURVE",
"785 567 OFFCURVE",
"877 567 CURVE SMOOTH"
);
}
);
width = 1755;
}
);
note = uni2D59;
unicode = 2D59;
},
{
glyphname = uni2D5A;
lastChange = "2016-11-10 17:37:56 +0000";
layers = (
{
layerId = "B1E53B03-7A3C-448C-A3F1-D6BA7BA0BD3F";
paths = (
{
closed = 1;
nodes = (
"1014 -20 OFFCURVE",
"1140 14 OFFCURVE",
"1256 81 CURVE SMOOTH",
"1487 216 OFFCURVE",
"1630 465 OFFCURVE",
"1630 733 CURVE SMOOTH",
"1630 912 OFFCURVE",
"1567 1090 OFFCURVE",
"1446 1227 CURVE",
"1628 1409 LINE",
"1513 1524 LINE",
"1327 1335 LINE",
"1211 1427 OFFCURVE",
"1046 1485 OFFCURVE",
"879 1485 CURVE SMOOTH",
"746 1485 OFFCURVE",
"621 1452 OFFCURVE",
"505 1386 CURVE SMOOTH",
"272 1254 OFFCURVE",
"125 1004 OFFCURVE",
"125 733 CURVE SMOOTH",
"125 599 OFFCURVE",
"159 474 OFFCURVE",
"226 358 CURVE SMOOTH",
"361 125 OFFCURVE",
"608 -20 OFFCURVE",
"879 -20 CURVE SMOOTH"
);
},
{
closed = 1;
nodes = (
"777 139 OFFCURVE",
"681 166 OFFCURVE",
"592 219 CURVE SMOOTH",
"413 326 OFFCURVE",
"305 521 OFFCURVE",
"305 733 CURVE SMOOTH",
"305 839 OFFCURVE",
"330 938 OFFCURVE",
"381 1029 CURVE SMOOTH",
"481 1211 OFFCURVE",
"672 1325 OFFCURVE",
"879 1325 CURVE SMOOTH",
"996 1325 OFFCURVE",
"1105 1289 OFFCURVE",
"1206 1217 CURVE",
"817 825 LINE",
"932 711 LINE",
"1321 1104 LINE",
"1405 1001 OFFCURVE",
"1448 869 OFFCURVE",
"1448 733 CURVE SMOOTH",
"1448 627 OFFCURVE",
"1422 528 OFFCURVE",
"1371 435 CURVE SMOOTH",
"1267 250 OFFCURVE",
"1078 139 OFFCURVE",
"879 139 CURVE SMOOTH"
);
}
);
width = 1755;
}
);
note = uni2D5A;
unicode = 2D5A;
},
{
glyphname = uni2D5B;
lastChange = "2016-11-10 17:37:56 +0000";
layers = (
{
layerId = "B1E53B03-7A3C-448C-A3F1-D6BA7BA0BD3F";
paths = (
{
closed = 1;
nodes = (
"1230 -20 OFFCURVE",
"1425 106 OFFCURVE",
"1425 319 CURVE SMOOTH",
"1425 490 OFFCURVE",
"1290 621 OFFCURVE",
"1122 621 CURVE SMOOTH",
"955 621 OFFCURVE",
"823 495 OFFCURVE",
"823 334 CURVE SMOOTH",
"823 258 OFFCURVE",
"848 193 OFFCURVE",
"897 139 CURVE",
"877 139 LINE SMOOTH",
"774 139 OFFCURVE",
"679 166 OFFCURVE",
"590 219 CURVE SMOOTH",
"413 325 OFFCURVE",
"305 520 OFFCURVE",
"305 731 CURVE SMOOTH",
"305 837 OFFCURVE",
"331 936 OFFCURVE",
"382 1029 CURVE SMOOTH",
"485 1213 OFFCURVE",
"672 1325 OFFCURVE",
"877 1325 CURVE SMOOTH",
"895 1325 LINE",
"847 1268 OFFCURVE",
"823 1203 OFFCURVE",
"823 1130 CURVE SMOOTH",
"823 965 OFFCURVE",
"954 844 OFFCURVE",
"1122 844 CURVE SMOOTH",
"1291 844 OFFCURVE",
"1425 974 OFFCURVE",
"1425 1143 CURVE SMOOTH",
"1425 1362 OFFCURVE",
"1222 1485 OFFCURVE",
"877 1485 CURVE SMOOTH",
"741 1485 OFFCURVE",
"615 1451 OFFCURVE",
"498 1383 CURVE SMOOTH",
"265 1246 OFFCURVE",
"125 998 OFFCURVE",
"125 731 CURVE SMOOTH",
"125 599 OFFCURVE",
"158 475 OFFCURVE",
"223 360 CURVE SMOOTH",
"353 129 OFFCURVE",
"601 -20 OFFCURVE",
"877 -20 CURVE SMOOTH"
);
},
{
closed = 1;
nodes = (
"1039 176 OFFCURVE",
"971 244 OFFCURVE",
"971 328 CURVE SMOOTH",
"971 412 OFFCURVE",
"1037 477 OFFCURVE",
"1122 477 CURVE SMOOTH",
"1209 477 OFFCURVE",
"1272 412 OFFCURVE",
"1272 328 CURVE SMOOTH",
"1272 243 OFFCURVE",
"1206 176 OFFCURVE",
"1122 176 CURVE SMOOTH"
);
},
{
closed = 1;
nodes = (
"1039 983 OFFCURVE",
"971 1051 OFFCURVE",
"971 1135 CURVE SMOOTH",
"971 1219 OFFCURVE",
"1037 1284 OFFCURVE",
"1122 1284 CURVE SMOOTH",
"1209 1284 OFFCURVE",
"1272 1219 OFFCURVE",
"1272 1135 CURVE SMOOTH",
"1272 1050 OFFCURVE",
"1206 983 OFFCURVE",
"1122 983 CURVE SMOOTH"
);
}
);
width = 1548;
}
);
note = uni2D5B;
unicode = 2D5B;
},
{
glyphname = uni2D5C;
lastChange = "2016-11-10 17:37:56 +0000";
layers = (
{
layerId = "B1E53B03-7A3C-448C-A3F1-D6BA7BA0BD3F";
paths = (
{
closed = 1;
nodes = (
"623 0 LINE",
"623 672 LINE",
"961 672 LINE",
"961 834 LINE",
"623 834 LINE",
"623 1462 LINE",
"440 1462 LINE",
"440 834 LINE",
"102 834 LINE",
"102 672 LINE",
"440 672 LINE",
"440 0 LINE"
);
}
);
width = 1063;
}
);
note = uni2D5C;
unicode = 2D5C;
},
{
glyphname = uni2D5D;
lastChange = "2016-11-10 17:37:56 +0000";
layers = (
{
layerId = "B1E53B03-7A3C-448C-A3F1-D6BA7BA0BD3F";
paths = (
{
closed = 1;
nodes = (
"264 0 LINE",
"653 584 LINE",
"1044 0 LINE",
"1239 0 LINE",
"752 731 LINE",
"1239 1462 LINE",
"1044 1462 LINE",
"653 877 LINE",
"264 1462 LINE",
"70 1462 LINE",
"557 731 LINE",
"70 0 LINE"
);
}
);
width = 1309;
}
);
note = uni2D5D;
unicode = 2D5D;
},
{
glyphname = uni2D5E;
lastChange = "2016-11-10 17:37:56 +0000";
layers = (
{
layerId = "B1E53B03-7A3C-448C-A3F1-D6BA7BA0BD3F";
paths = (
{
closed = 1;
nodes = (
"1230 -20 OFFCURVE",
"1425 106 OFFCURVE",
"1425 319 CURVE SMOOTH",
"1425 490 OFFCURVE",
"1290 621 OFFCURVE",
"1122 621 CURVE SMOOTH",
"955 621 OFFCURVE",
"823 495 OFFCURVE",
"823 334 CURVE SMOOTH",
"823 258 OFFCURVE",
"848 193 OFFCURVE",
"897 139 CURVE",
"877 139 LINE SMOOTH",
"782 139 OFFCURVE",
"693 162 OFFCURVE",
"609 208 CURVE SMOOTH",
"441 300 OFFCURVE",
"330 469 OFFCURVE",
"309 664 CURVE",
"547 664 LINE",
"547 365 LINE",
"694 365 LINE",
"694 664 LINE",
"979 664 LINE",
"979 809 LINE",
"694 809 LINE",
"694 1110 LINE",
"547 1110 LINE",
"547 809 LINE",
"309 809 LINE",
"322 905 OFFCURVE",
"355 993 OFFCURVE",
"409 1073 CURVE SMOOTH",
"516 1232 OFFCURVE",
"690 1325 OFFCURVE",
"877 1325 CURVE SMOOTH",
"895 1325 LINE",
"847 1268 OFFCURVE",
"823 1203 OFFCURVE",
"823 1130 CURVE SMOOTH",
"823 965 OFFCURVE",
"954 844 OFFCURVE",
"1122 844 CURVE SMOOTH",
"1291 844 OFFCURVE",
"1425 974 OFFCURVE",
"1425 1143 CURVE SMOOTH",
"1425 1362 OFFCURVE",
"1222 1485 OFFCURVE",
"877 1485 CURVE SMOOTH",
"741 1485 OFFCURVE",
"615 1451 OFFCURVE",
"498 1383 CURVE SMOOTH",
"265 1246 OFFCURVE",
"125 998 OFFCURVE",
"125 731 CURVE SMOOTH",
"125 599 OFFCURVE",
"158 475 OFFCURVE",
"223 360 CURVE SMOOTH",
"353 129 OFFCURVE",
"601 -20 OFFCURVE",
"877 -20 CURVE SMOOTH"
);
},
{
closed = 1;
nodes = (
"1039 176 OFFCURVE",
"971 244 OFFCURVE",
"971 328 CURVE SMOOTH",
"971 412 OFFCURVE",
"1037 477 OFFCURVE",
"1122 477 CURVE SMOOTH",
"1209 477 OFFCURVE",
"1272 412 OFFCURVE",
"1272 328 CURVE SMOOTH",
"1272 243 OFFCURVE",
"1206 176 OFFCURVE",
"1122 176 CURVE SMOOTH"
);
},
{
closed = 1;
nodes = (
"1039 983 OFFCURVE",
"971 1051 OFFCURVE",
"971 1135 CURVE SMOOTH",
"971 1219 OFFCURVE",
"1037 1284 OFFCURVE",
"1122 1284 CURVE SMOOTH",
"1209 1284 OFFCURVE",
"1272 1219 OFFCURVE",
"1272 1135 CURVE SMOOTH",
"1272 1050 OFFCURVE",
"1206 983 OFFCURVE",
"1122 983 CURVE SMOOTH"
);
}
);
width = 1548;
}
);
note = uni2D5E;
unicode = 2D5E;
},
{
glyphname = uni2D5F;
lastChange = "2016-11-10 17:37:33 +0000";
layers = (
{
layerId = "B1E53B03-7A3C-448C-A3F1-D6BA7BA0BD3F";
paths = (
{
closed = 1;
nodes = (
"1202 0 LINE",
"1202 162 LINE",
"381 162 LINE",
"381 651 LINE",
"618 651 LINE",
"618 395 LINE",
"780 395 LINE",
"780 651 LINE",
"1036 651 LINE",
"1036 813 LINE",
"780 813 LINE",
"780 1069 LINE",
"618 1069 LINE",
"618 813 LINE",
"381 813 LINE",
"381 1300 LINE",
"1202 1300 LINE",
"1202 1462 LINE",
"199 1462 LINE",
"199 0 LINE"
);
}
);
width = 1325;
}
);
note = uni2D5F;
unicode = 2D5F;
},
{
glyphname = uni2D60;
lastChange = "2016-11-10 17:37:56 +0000";
layers = (
{
layerId = "B1E53B03-7A3C-448C-A3F1-D6BA7BA0BD3F";
paths = (
{
closed = 1;
nodes = (
"1272 0 LINE",
"1272 90 LINE",
"768 1462 LINE",
"606 1462 LINE",
"102 92 LINE",
"102 0 LINE"
);
},
{
closed = 1;
nodes = (
"590 956 LINE SMOOTH",
"634 1073 OFFCURVE",
"667 1182 OFFCURVE",
"688 1284 CURVE",
"708 1183 OFFCURVE",
"739 1076 OFFCURVE",
"780 963 CURVE SMOOTH",
"1071 162 LINE",
"299 162 LINE"
);
}
);
width = 1374;
}
);
note = uni2D60;
unicode = 2D60;
},
{
glyphname = uni2D61;
lastChange = "2016-11-10 17:37:33 +0000";
layers = (
{
layerId = "B1E53B03-7A3C-448C-A3F1-D6BA7BA0BD3F";
paths = (
{
closed = 1;
nodes = (
"1245 0 LINE",
"1245 1462 LINE",
"1063 1462 LINE",
"1063 162 LINE",
"381 162 LINE",
"381 1462 LINE",
"199 1462 LINE",
"199 0 LINE"
);
}
);
width = 1444;
}
);
note = uni2D61;
unicode = 2D61;
},
{
glyphname = uni2D62;
lastChange = "2016-11-10 17:37:56 +0000";
layers = (
{
layerId = "B1E53B03-7A3C-448C-A3F1-D6BA7BA0BD3F";
paths = (
{
closed = 1;
nodes = (
"854 633 LINE",
"854 750 LINE",
"619 887 OFFCURVE",
"443 987 OFFCURVE",
"324 1051 CURVE",
"419 1092 OFFCURVE",
"515 1139 OFFCURVE",
"612 1190 CURVE SMOOTH",
"854 1313 LINE",
"854 1485 LINE",
"123 1116 LINE",
"123 999 LINE",
"400 835 OFFCURVE",
"556 744 OFFCURVE",
"589 726 CURVE SMOOTH",
"622 707 OFFCURVE",
"653 691 OFFCURVE",
"682 676 CURVE",
"682 674 LINE",
"648 647 OFFCURVE",
"621 626 OFFCURVE",
"601 609 CURVE SMOOTH",
"581 592 OFFCURVE",
"422 451 OFFCURVE",
"123 184 CURVE",
"123 -20 LINE"
);
}
);
width = 977;
}
);
note = uni2D62;
unicode = 2D62;
},
{
glyphname = uni2D63;
lastChange = "2016-11-10 17:37:56 +0000";
layers = (
{
layerId = "B1E53B03-7A3C-448C-A3F1-D6BA7BA0BD3F";
paths = (
{
closed = 1;
nodes = (
"289 0 LINE",
"353 260 OFFCURVE",
"517 413 OFFCURVE",
"764 432 CURVE",
"764 0 LINE",
"946 0 LINE",
"946 432 LINE",
"1191 413 OFFCURVE",
"1357 261 OFFCURVE",
"1421 0 CURVE",
"1589 0 LINE",
"1568 110 OFFCURVE",
"1527 210 OFFCURVE",
"1467 299 CURVE SMOOTH",
"1347 478 OFFCURVE",
"1166 579 OFFCURVE",
"946 590 CURVE",
"946 872 LINE",
"1057 878 OFFCURVE",
"1156 906 OFFCURVE",
"1245 956 CURVE SMOOTH",
"1421 1055 OFFCURVE",
"1546 1243 OFFCURVE",
"1589 1462 CURVE",
"1421 1462 LINE",
"1357 1202 OFFCURVE",
"1193 1049 OFFCURVE",
"946 1030 CURVE",
"946 1462 LINE",
"764 1462 LINE",
"764 1030 LINE",
"513 1049 OFFCURVE",
"354 1203 OFFCURVE",
"289 1462 CURVE",
"123 1462 LINE",
"188 1123 OFFCURVE",
"428 889 OFFCURVE",
"764 872 CURVE",
"764 590 LINE",
"428 573 OFFCURVE",
"190 341 OFFCURVE",
"123 0 CURVE"
);
}
);
width = 1712;
}
);
note = uni2D63;
unicode = 2D63;
},
{
glyphname = uni2D64;
lastChange = "2016-11-10 17:37:56 +0000";
layers = (
{
layerId = "B1E53B03-7A3C-448C-A3F1-D6BA7BA0BD3F";
paths = (
{
closed = 1;
nodes = (
"381 0 LINE",
"381 1036 LINE SMOOTH",
"381 1109 OFFCURVE",
"379 1180 OFFCURVE",
"375 1249 CURVE",
"401 1215 OFFCURVE",
"514 1098 OFFCURVE",
"713 899 CURVE",
"827 1014 LINE",
"381 1462 LINE",
"199 1462 LINE",
"199 0 LINE"
);
}
);
width = 930;
}
);
note = uni2D64;
unicode = 2D64;
},
{
glyphname = uni2D65;
lastChange = "2016-11-10 17:37:56 +0000";
layers = (
{
layerId = "B1E53B03-7A3C-448C-A3F1-D6BA7BA0BD3F";
paths = (
{
closed = 1;
nodes = (
"289 0 LINE",
"354 227 OFFCURVE",
"513 365 OFFCURVE",
"764 381 CURVE",
"764 0 LINE",
"946 0 LINE",
"946 381 LINE",
"1195 365 OFFCURVE",
"1356 227 OFFCURVE",
"1421 0 CURVE",
"1589 0 LINE",
"1520 311 OFFCURVE",
"1275 515 OFFCURVE",
"946 528 CURVE",
"946 662 LINE",
"1481 662 LINE",
"1481 803 LINE",
"946 803 LINE",
"946 934 LINE",
"1057 939 OFFCURVE",
"1157 963 OFFCURVE",
"1246 1008 CURVE SMOOTH",
"1423 1097 OFFCURVE",
"1546 1267 OFFCURVE",
"1589 1462 CURVE",
"1421 1462 LINE",
"1356 1234 OFFCURVE",
"1198 1098 OFFCURVE",
"946 1081 CURVE",
"946 1462 LINE",
"764 1462 LINE",
"764 1081 LINE",
"512 1098 OFFCURVE",
"354 1234 OFFCURVE",
"289 1462 CURVE",
"123 1462 LINE",
"188 1157 OFFCURVE",
"429 947 OFFCURVE",
"764 934 CURVE",
"764 803 LINE",
"229 803 LINE",
"229 662 LINE",
"764 662 LINE",
"764 528 LINE",
"435 516 OFFCURVE",
"187 308 OFFCURVE",
"123 0 CURVE"
);
}
);
width = 1712;
}
);
note = uni2D65;
unicode = 2D65;
},
{
glyphname = uni2D66;
lastChange = "2016-11-10 17:37:33 +0000";
layers = (
{
layerId = "B1E53B03-7A3C-448C-A3F1-D6BA7BA0BD3F";
paths = (
{
closed = 1;
nodes = (
"1210 152 LINE",
"360 576 LINE",
"256 625 LINE",
"368 674 OFFCURVE",
"465 720 OFFCURVE",
"547 762 CURVE SMOOTH",
"1210 1094 LINE",
"1210 1266 LINE",
"41 682 LINE",
"41 565 LINE",
"1210 -20 LINE"
);
}
);
width = 1333;
}
);
note = uni2D66;
unicode = 2D66;
},
{
glyphname = uni2D67;
lastChange = "2016-11-10 17:37:56 +0000";
layers = (
{
layerId = "B1E53B03-7A3C-448C-A3F1-D6BA7BA0BD3F";
paths = (
{
closed = 1;
nodes = (
"1456 651 LINE",
"1456 813 LINE",
"870 813 LINE",
"870 651 LINE"
);
},
{
closed = 1;
nodes = (
"709 651 LINE",
"709 813 LINE",
"123 813 LINE",
"123 651 LINE"
);
}
);
width = 1579;
}
);
note = uni2D67;
unicode = 2D67;
},
{
glyphname = uni2D6F;
lastChange = "2016-11-10 17:37:56 +0000";
layers = (
{
layerId = "B1E53B03-7A3C-448C-A3F1-D6BA7BA0BD3F";
paths = (
{
closed = 1;
nodes = (
"569 1079 LINE",
"569 1462 LINE",
"420 1462 LINE",
"420 1229 LINE",
"213 1229 LINE",
"213 1462 LINE",
"61 1462 LINE",
"61 1079 LINE"
);
}
);
width = 631;
}
);
note = uni2D6F;
unicode = 2D6F;
},
{
glyphname = uni2D70;
lastChange = "2016-11-10 17:37:33 +0000";
layers = (
{
layerId = "B1E53B03-7A3C-448C-A3F1-D6BA7BA0BD3F";
paths = (
{
closed = 1;
nodes = (
"925 -240 OFFCURVE",
"1446 419 OFFCURVE",
"1534 1462 CURVE",
"1372 1462 LINE",
"1343 1154 OFFCURVE",
"1273 878 OFFCURVE",
"1162 634 CURVE SMOOTH",
"941 146 OFFCURVE",
"563 -169 OFFCURVE",
"68 -281 CURVE",
"68 -399 LINE"
);
}
);
width = 1575;
}
);
note = uni2D70;
unicode = 2D70;
},
{
glyphname = uni2D7F;
lastChange = "2016-11-10 17:37:56 +0000";
layers = (
{
layerId = "B1E53B03-7A3C-448C-A3F1-D6BA7BA0BD3F";
paths = (
{
closed = 1;
nodes = (
"885 -356 OFFCURVE",
"934 -324 OFFCURVE",
"934 -244 CURVE SMOOTH",
"934 -172 OFFCURVE",
"896 -131 OFFCURVE",
"829 -131 CURVE SMOOTH",
"772 -131 OFFCURVE",
"727 -163 OFFCURVE",
"727 -244 CURVE SMOOTH",
"727 -324 OFFCURVE",
"772 -356 OFFCURVE",
"829 -356 CURVE SMOOTH"
);
},
{
closed = 1;
nodes = (
"-765 -356 OFFCURVE",
"-725 -315 OFFCURVE",
"-725 -244 CURVE SMOOTH",
"-725 -171 OFFCURVE",
"-764 -131 OFFCURVE",
"-829 -131 CURVE SMOOTH",
"-888 -131 OFFCURVE",
"-932 -163 OFFCURVE",
"-932 -244 CURVE SMOOTH",
"-932 -324 OFFCURVE",
"-888 -356 OFFCURVE",
"-829 -356 CURVE SMOOTH"
);
},
{
closed = 1;
nodes = (
"-442 -356 OFFCURVE",
"-393 -324 OFFCURVE",
"-393 -244 CURVE SMOOTH",
"-393 -172 OFFCURVE",
"-431 -131 OFFCURVE",
"-498 -131 CURVE SMOOTH",
"-555 -131 OFFCURVE",
"-600 -163 OFFCURVE",
"-600 -244 CURVE SMOOTH",
"-600 -324 OFFCURVE",
"-555 -356 OFFCURVE",
"-498 -356 CURVE SMOOTH"
);
},
{
closed = 1;
nodes = (
"-109 -356 OFFCURVE",
"-61 -324 OFFCURVE",
"-61 -244 CURVE SMOOTH",
"-61 -163 OFFCURVE",
"-109 -131 OFFCURVE",
"-166 -131 CURVE SMOOTH",
"-223 -131 OFFCURVE",
"-268 -163 OFFCURVE",
"-268 -244 CURVE SMOOTH",
"-268 -324 OFFCURVE",
"-223 -356 OFFCURVE",
"-166 -356 CURVE SMOOTH"
);
},
{
closed = 1;
nodes = (
"230 -356 OFFCURVE",
"270 -315 OFFCURVE",
"270 -244 CURVE SMOOTH",
"270 -171 OFFCURVE",
"231 -131 OFFCURVE",
"166 -131 CURVE SMOOTH",
"109 -131 OFFCURVE",
"63 -163 OFFCURVE",
"63 -244 CURVE SMOOTH",
"63 -324 OFFCURVE",
"109 -356 OFFCURVE",
"166 -356 CURVE SMOOTH"
);
},
{
closed = 1;
nodes = (
"555 -356 OFFCURVE",
"602 -324 OFFCURVE",
"602 -244 CURVE SMOOTH",
"602 -163 OFFCURVE",
"555 -131 OFFCURVE",
"498 -131 CURVE SMOOTH",
"439 -131 OFFCURVE",
"395 -163 OFFCURVE",
"395 -244 CURVE SMOOTH",
"395 -324 OFFCURVE",
"439 -356 OFFCURVE",
"498 -356 CURVE SMOOTH"
);
}
);
width = 0;
}
);
note = uni2D7F;
unicode = 2D7F;
},
{
glyphname = uni2D4D2D5C;
lastChange = "2016-11-10 17:37:56 +0000";
layers = (
{
layerId = "B1E53B03-7A3C-448C-A3F1-D6BA7BA0BD3F";
paths = (
{
closed = 1;
nodes = (
"334 170 LINE",
"334 622 LINE",
"734 622 LINE",
"734 420 LINE",
"917 420 LINE",
"917 622 LINE",
"1317 622 LINE",
"1317 170 LINE",
"1501 170 LINE",
"1501 1260 LINE",
"1317 1260 LINE",
"1317 784 LINE",
"917 784 LINE",
"917 1002 LINE",
"734 1002 LINE",
"734 784 LINE",
"334 784 LINE",
"334 1260 LINE",
"150 1260 LINE",
"150 170 LINE"
);
}
);
width = 1651;
}
);
note = uni2D4D2D5C;
},
{
glyphname = uni2D402D5C;
lastChange = "2016-11-10 17:37:56 +0000";
layers = (
{
layerId = "B1E53B03-7A3C-448C-A3F1-D6BA7BA0BD3F";
paths = (
{
closed = 1;
nodes = (
"1004 -20 OFFCURVE",
"1123 10 OFFCURVE",
"1234 71 CURVE SMOOTH",
"1455 191 OFFCURVE",
"1602 411 OFFCURVE",
"1626 658 CURVE",
"1850 658 LINE",
"1850 386 LINE",
"2033 386 LINE",
"2033 658 LINE",
"2411 658 LINE",
"2411 820 LINE",
"2033 820 LINE",
"2033 1068 LINE",
"1850 1068 LINE",
"1850 820 LINE",
"1625 820 LINE",
"1609 945 OFFCURVE",
"1566 1059 OFFCURVE",
"1495 1160 CURVE SMOOTH",
"1353 1363 OFFCURVE",
"1120 1485 OFFCURVE",
"877 1485 CURVE SMOOTH",
"740 1485 OFFCURVE",
"614 1451 OFFCURVE",
"498 1382 CURVE SMOOTH",
"266 1244 OFFCURVE",
"125 991 OFFCURVE",
"125 731 CURVE SMOOTH",
"125 594 OFFCURVE",
"159 468 OFFCURVE",
"228 353 CURVE SMOOTH",
"365 121 OFFCURVE",
"608 -20 OFFCURVE",
"877 -20 CURVE SMOOTH"
);
},
{
closed = 1;
nodes = (
"698 160 OFFCURVE",
"617 195 OFFCURVE",
"543 251 CURVE SMOOTH",
"395 362 OFFCURVE",
"305 543 OFFCURVE",
"305 731 CURVE SMOOTH",
"305 826 OFFCURVE",
"326 917 OFFCURVE",
"369 1002 CURVE SMOOTH",
"453 1172 OFFCURVE",
"611 1290 OFFCURVE",
"786 1317 CURVE",
"786 147 LINE"
);
},
{
closed = 1;
nodes = (
"969 1317 LINE",
"1060 1300 OFFCURVE",
"1143 1264 OFFCURVE",
"1216 1207 CURVE SMOOTH",
"1363 1094 OFFCURVE",
"1448 918 OFFCURVE",
"1448 731 CURVE SMOOTH",
"1448 639 OFFCURVE",
"1428 551 OFFCURVE",
"1387 466 CURVE SMOOTH",
"1306 296 OFFCURVE",
"1150 176 OFFCURVE",
"969 147 CURVE"
);
}
);
width = 2491;
}
);
note = uni2D402D5C;
},
{
glyphname = uni2D4E2D40;
lastChange = "2016-11-10 17:37:56 +0000";
layers = (
{
layerId = "B1E53B03-7A3C-448C-A3F1-D6BA7BA0BD3F";
paths = (
{
closed = 1;
nodes = (
"1332 0 LINE",
"1332 162 LINE",
"381 162 LINE",
"381 1300 LINE",
"1332 1300 LINE",
"1332 1462 LINE",
"199 1462 LINE",
"199 0 LINE"
);
},
{
closed = 1;
nodes = (
"698 496 OFFCURVE",
"623 596 OFFCURVE",
"623 716 CURVE SMOOTH",
"623 831 OFFCURVE",
"700 937 OFFCURVE",
"813 972 CURVE",
"813 461 LINE"
);
},
{
closed = 1;
nodes = (
"1039 303 OFFCURVE",
"1174 384 OFFCURVE",
"1249 512 CURVE SMOOTH",
"1286 576 OFFCURVE",
"1305 644 OFFCURVE",
"1305 716 CURVE SMOOTH",
"1305 855 OFFCURVE",
"1225 997 OFFCURVE",
"1101 1074 CURVE SMOOTH",
"1038 1112 OFFCURVE",
"971 1131 OFFCURVE",
"900 1131 CURVE SMOOTH",
"747 1131 OFFCURVE",
"609 1053 OFFCURVE",
"534 925 CURVE SMOOTH",
"496 861 OFFCURVE",
"477 791 OFFCURVE",
"477 716 CURVE SMOOTH",
"477 563 OFFCURVE",
"558 429 OFFCURVE",
"690 357 CURVE SMOOTH",
"756 321 OFFCURVE",
"826 303 OFFCURVE",
"900 303 CURVE SMOOTH"
);
},
{
closed = 1;
nodes = (
"970 974 LINE",
"1079 941 OFFCURVE",
"1160 828 OFFCURVE",
"1160 716 CURVE SMOOTH",
"1160 603 OFFCURVE",
"1082 496 OFFCURVE",
"970 459 CURVE"
);
}
);
width = 1455;
}
);
note = uni2D4E2D40;
},
{
glyphname = uni2D4E2D59;
lastChange = "2016-11-10 17:37:56 +0000";
layers = (
{
layerId = "B1E53B03-7A3C-448C-A3F1-D6BA7BA0BD3F";
paths = (
{
closed = 1;
nodes = (
"1332 0 LINE",
"1332 162 LINE",
"381 162 LINE",
"381 1300 LINE",
"1332 1300 LINE",
"1332 1462 LINE",
"199 1462 LINE",
"199 0 LINE"
);
},
{
closed = 1;
nodes = (
"1039 303 OFFCURVE",
"1174 384 OFFCURVE",
"1249 512 CURVE SMOOTH",
"1286 576 OFFCURVE",
"1305 644 OFFCURVE",
"1305 716 CURVE SMOOTH",
"1305 855 OFFCURVE",
"1225 997 OFFCURVE",
"1101 1074 CURVE SMOOTH",
"1038 1112 OFFCURVE",
"971 1131 OFFCURVE",
"900 1131 CURVE SMOOTH",
"747 1131 OFFCURVE",
"609 1053 OFFCURVE",
"534 925 CURVE SMOOTH",
"496 861 OFFCURVE",
"477 791 OFFCURVE",
"477 716 CURVE SMOOTH",
"477 563 OFFCURVE",
"558 429 OFFCURVE",
"690 357 CURVE SMOOTH",
"756 321 OFFCURVE",
"826 303 OFFCURVE",
"900 303 CURVE SMOOTH"
);
},
{
closed = 1;
nodes = (
"749 448 OFFCURVE",
"623 560 OFFCURVE",
"623 716 CURVE SMOOTH",
"623 864 OFFCURVE",
"745 985 OFFCURVE",
"898 985 CURVE SMOOTH",
"990 985 OFFCURVE",
"1076 931 OFFCURVE",
"1124 847 CURVE SMOOTH",
"1148 805 OFFCURVE",
"1160 761 OFFCURVE",
"1160 716 CURVE SMOOTH",
"1160 572 OFFCURVE",
"1038 448 OFFCURVE",
"898 448 CURVE SMOOTH"
);
},
{
closed = 1;
nodes = (
"955 601 OFFCURVE",
"1007 653 OFFCURVE",
"1007 716 CURVE SMOOTH",
"1007 777 OFFCURVE",
"954 832 OFFCURVE",
"894 832 CURVE SMOOTH",
"831 832 OFFCURVE",
"776 783 OFFCURVE",
"776 716 CURVE SMOOTH",
"776 648 OFFCURVE",
"831 601 OFFCURVE",
"894 601 CURVE SMOOTH"
);
}
);
width = 1455;
}
);
note = uni2D4E2D59;
},
{
glyphname = uni2D4E2D5C;
lastChange = "2016-11-10 17:37:56 +0000";
layers = (
{
layerId = "B1E53B03-7A3C-448C-A3F1-D6BA7BA0BD3F";
paths = (
{
closed = 1;
nodes = (
"1202 0 LINE",
"1202 162 LINE",
"381 162 LINE",
"381 1300 LINE",
"1136 1300 LINE",
"1136 1090 LINE",
"1308 1090 LINE",
"1308 1300 LINE",
"1662 1300 LINE",
"1662 1462 LINE",
"1308 1462 LINE",
"1308 1660 LINE",
"1136 1660 LINE",
"1136 1462 LINE",
"199 1462 LINE",
"199 0 LINE"
);
}
);
width = 1762;
}
);
note = uni2D4E2D5C;
},
{
glyphname = uni2D4F2D40;
lastChange = "2016-11-10 17:37:56 +0000";
layers = (
{
layerId = "B1E53B03-7A3C-448C-A3F1-D6BA7BA0BD3F";
paths = (
{
closed = 1;
nodes = (
"307 -300 LINE",
"307 239 LINE",
"443 79 OFFCURVE",
"654 -20 OFFCURVE",
"877 -20 CURVE SMOOTH",
"1011 -20 OFFCURVE",
"1136 14 OFFCURVE",
"1253 81 CURVE SMOOTH",
"1485 216 OFFCURVE",
"1630 466 OFFCURVE",
"1630 731 CURVE SMOOTH",
"1630 868 OFFCURVE",
"1595 995 OFFCURVE",
"1526 1111 CURVE SMOOTH",
"1387 1343 OFFCURVE",
"1138 1485 OFFCURVE",
"877 1485 CURVE SMOOTH",
"740 1485 OFFCURVE",
"614 1451 OFFCURVE",
"498 1382 CURVE SMOOTH",
"266 1244 OFFCURVE",
"125 991 OFFCURVE",
"125 731 CURVE SMOOTH",
"125 -300 LINE"
);
},
{
closed = 1;
nodes = (
"703 159 OFFCURVE",
"624 191 OFFCURVE",
"550 244 CURVE SMOOTH",
"401 349 OFFCURVE",
"307 517 OFFCURVE",
"307 684 CURVE SMOOTH",
"307 768 LINE SMOOTH",
"310 857 OFFCURVE",
"334 942 OFFCURVE",
"377 1021 CURVE SMOOTH",
"464 1179 OFFCURVE",
"619 1293 OFFCURVE",
"786 1317 CURVE",
"786 147 LINE"
);
},
{
closed = 1;
nodes = (
"969 1317 LINE",
"1060 1300 OFFCURVE",
"1143 1264 OFFCURVE",
"1216 1207 CURVE SMOOTH",
"1363 1094 OFFCURVE",
"1448 918 OFFCURVE",
"1448 731 CURVE SMOOTH",
"1448 639 OFFCURVE",
"1428 551 OFFCURVE",
"1387 466 CURVE SMOOTH",
"1306 296 OFFCURVE",
"1150 176 OFFCURVE",
"969 147 CURVE"
);
}
);
width = 1755;
}
);
note = uni2D4F2D40;
},
{
glyphname = uni2D4F2D39;
lastChange = "2016-11-10 17:37:33 +0000";
layers = (
{
layerId = "B1E53B03-7A3C-448C-A3F1-D6BA7BA0BD3F";
paths = (
{
closed = 1;
nodes = (
"1202 0 LINE",
"1202 162 LINE",
"381 162 LINE",
"381 651 LINE",
"1202 651 LINE",
"1202 813 LINE",
"381 813 LINE",
"381 1300 LINE",
"1202 1300 LINE",
"1202 1660 LINE",
"1030 1660 LINE",
"1030 1462 LINE",
"199 1462 LINE",
"199 0 LINE"
);
}
);
width = 1325;
}
);
note = uni2D4F2D39;
},
{
glyphname = uni2D4F2D38;
lastChange = "2016-11-10 17:37:56 +0000";
layers = (
{
layerId = "B1E53B03-7A3C-448C-A3F1-D6BA7BA0BD3F";
paths = (
{
closed = 1;
nodes = (
"727 0 LINE",
"1231 1462 LINE",
"1059 1462 LINE",
"827 789 OFFCURVE",
"703 428 OFFCURVE",
"687 379 CURVE SMOOTH",
"671 330 OFFCURVE",
"658 284 OFFCURVE",
"647 242 CURVE",
"623 338 OFFCURVE",
"590 428 OFFCURVE",
"549 549 CURVE SMOOTH",
"233 1462 LINE",
"61 1462 LINE",
"565 0 LINE"
);
},
{
closed = 1;
nodes = (
"731 1090 LINE",
"731 1660 LINE",
"559 1660 LINE",
"559 1090 LINE"
);
}
);
width = 1292;
}
);
note = uni2D4F2D38;
},
{
glyphname = uni2D3C2D5C;
lastChange = "2016-11-10 17:37:56 +0000";
layers = (
{
layerId = "B1E53B03-7A3C-448C-A3F1-D6BA7BA0BD3F";
paths = (
{
closed = 1;
nodes = (
"666 0 LINE",
"666 651 LINE",
"827 651 LINE",
"827 387 LINE",
"999 387 LINE",
"999 651 LINE",
"1161 651 LINE",
"1161 0 LINE",
"1703 0 LINE",
"1703 162 LINE",
"1343 162 LINE",
"1343 1300 LINE",
"1703 1300 LINE",
"1703 1462 LINE",
"1161 1462 LINE",
"1161 813 LINE",
"999 813 LINE",
"999 1069 LINE",
"827 1069 LINE",
"827 813 LINE",
"666 813 LINE",
"666 1462 LINE",
"123 1462 LINE",
"123 1300 LINE",
"483 1300 LINE",
"483 162 LINE",
"123 162 LINE",
"123 0 LINE"
);
}
);
width = 1826;
}
);
note = uni2D3C2D5C;
},
{
glyphname = uni2D4F2D3C;
lastChange = "2016-11-10 17:37:56 +0000";
layers = (
{
layerId = "B1E53B03-7A3C-448C-A3F1-D6BA7BA0BD3F";
paths = (
{
closed = 1;
nodes = (
"342 0 LINE",
"342 381 LINE",
"1440 381 LINE",
"1440 0 LINE",
"1622 0 LINE",
"1622 543 LINE",
"981 543 LINE",
"981 920 LINE",
"1622 920 LINE",
"1622 1462 LINE",
"1440 1462 LINE",
"1440 1082 LINE",
"342 1082 LINE",
"342 1462 LINE",
"160 1462 LINE",
"160 920 LINE",
"799 920 LINE",
"799 543 LINE",
"160 543 LINE",
"160 0 LINE"
);
}
);
width = 1782;
}
);
note = uni2D4F2D3C;
},
{
glyphname = uni2D4F2D36;
lastChange = "2016-11-10 17:37:56 +0000";
layers = (
{
layerId = "B1E53B03-7A3C-448C-A3F1-D6BA7BA0BD3F";
paths = (
{
closed = 1;
nodes = (
"710 0 LINE",
"1156 448 LINE",
"1042 563 LINE",
"925 448 OFFCURVE",
"752 273 OFFCURVE",
"704 213 CURVE",
"709 274 OFFCURVE",
"711 345 OFFCURVE",
"711 426 CURVE SMOOTH",
"711 1462 LINE",
"528 1462 LINE",
"528 0 LINE"
);
},
{
closed = 1;
nodes = (
"308 1186 OFFCURVE",
"356 1240 OFFCURVE",
"356 1325 CURVE SMOOTH",
"356 1413 OFFCURVE",
"308 1462 OFFCURVE",
"227 1462 CURVE SMOOTH",
"147 1462 OFFCURVE",
"102 1413 OFFCURVE",
"102 1325 CURVE SMOOTH",
"102 1237 OFFCURVE",
"147 1186 OFFCURVE",
"227 1186 CURVE SMOOTH"
);
},
{
closed = 1;
nodes = (
"1089 1186 OFFCURVE",
"1137 1240 OFFCURVE",
"1137 1325 CURVE SMOOTH",
"1137 1413 OFFCURVE",
"1089 1462 OFFCURVE",
"1008 1462 CURVE SMOOTH",
"925 1462 OFFCURVE",
"883 1416 OFFCURVE",
"883 1325 CURVE SMOOTH",
"883 1236 OFFCURVE",
"928 1186 OFFCURVE",
"1008 1186 CURVE SMOOTH"
);
}
);
width = 1258;
}
);
note = uni2D4F2D36;
},
{
glyphname = uni2D4F2D34;
lastChange = "2016-11-10 17:37:56 +0000";
layers = (
{
layerId = "B1E53B03-7A3C-448C-A3F1-D6BA7BA0BD3F";
paths = (
{
closed = 1;
nodes = (
"1280 0 LINE",
"1280 90 LINE",
"793 750 LINE",
"1321 1462 LINE",
"1126 1462 LINE",
"694 881 LINE",
"264 1462 LINE",
"70 1462 LINE",
"609 750 LINE",
"111 92 LINE",
"111 0 LINE"
);
},
{
closed = 1;
nodes = (
"694 618 LINE",
"1032 162 LINE",
"356 162 LINE"
);
},
{
closed = 1;
nodes = (
"781 1140 LINE",
"781 1660 LINE",
"609 1660 LINE",
"609 1140 LINE"
);
}
);
width = 1391;
}
);
note = uni2D4F2D34;
},
{
glyphname = uni2D4F2D57;
lastChange = "2016-11-10 17:37:56 +0000";
layers = (
{
layerId = "B1E53B03-7A3C-448C-A3F1-D6BA7BA0BD3F";
paths = (
{
closed = 1;
nodes = (
"711 0 LINE",
"711 1462 LINE",
"528 1462 LINE",
"528 0 LINE"
);
},
{
closed = 1;
nodes = (
"1089 0 OFFCURVE",
"1137 54 OFFCURVE",
"1137 139 CURVE SMOOTH",
"1137 227 OFFCURVE",
"1089 276 OFFCURVE",
"1008 276 CURVE SMOOTH",
"925 276 OFFCURVE",
"883 230 OFFCURVE",
"883 139 CURVE SMOOTH",
"883 50 OFFCURVE",
"928 0 OFFCURVE",
"1008 0 CURVE SMOOTH"
);
},
{
closed = 1;
nodes = (
"308 1186 OFFCURVE",
"356 1240 OFFCURVE",
"356 1325 CURVE SMOOTH",
"356 1413 OFFCURVE",
"308 1462 OFFCURVE",
"227 1462 CURVE SMOOTH",
"147 1462 OFFCURVE",
"102 1413 OFFCURVE",
"102 1325 CURVE SMOOTH",
"102 1237 OFFCURVE",
"147 1186 OFFCURVE",
"227 1186 CURVE SMOOTH"
);
}
);
width = 1239;
}
);
note = uni2D4F2D57;
},
{
glyphname = uni2D4F2D4C;
lastChange = "2016-11-10 17:37:56 +0000";
layers = (
{
layerId = "B1E53B03-7A3C-448C-A3F1-D6BA7BA0BD3F";
paths = (
{
closed = 1;
nodes = (
"625 0 LINE",
"625 920 LINE",
"981 920 LINE",
"981 0 LINE",
"1163 0 LINE",
"1163 920 LINE",
"1513 920 LINE",
"1513 1081 LINE",
"1163 1081 LINE",
"1163 1462 LINE",
"981 1462 LINE",
"981 1081 LINE",
"625 1081 LINE",
"625 1462 LINE",
"442 1462 LINE",
"442 1081 LINE",
"92 1081 LINE",
"92 920 LINE",
"442 920 LINE",
"442 0 LINE"
);
}
);
width = 1606;
}
);
note = uni2D4F2D4C;
},
{
glyphname = uni2D4F2D3E;
lastChange = "2016-11-10 17:37:56 +0000";
layers = (
{
layerId = "B1E53B03-7A3C-448C-A3F1-D6BA7BA0BD3F";
paths = (
{
closed = 1;
nodes = (
"435 257 LINE",
"435 1169 LINE",
"253 1169 LINE",
"253 257 LINE"
);
},
{
closed = 1;
nodes = (
"410 -300 OFFCURVE",
"448 -258 OFFCURVE",
"448 -187 CURVE SMOOTH",
"448 -107 OFFCURVE",
"400 -75 OFFCURVE",
"343 -75 CURVE SMOOTH",
"274 -75 OFFCURVE",
"240 -112 OFFCURVE",
"240 -187 CURVE SMOOTH",
"240 -262 OFFCURVE",
"274 -300 OFFCURVE",
"343 -300 CURVE SMOOTH"
);
},
{
closed = 1;
nodes = (
"230 -60 OFFCURVE",
"268 -18 OFFCURVE",
"268 53 CURVE SMOOTH",
"268 133 OFFCURVE",
"220 165 OFFCURVE",
"163 165 CURVE SMOOTH",
"94 165 OFFCURVE",
"60 128 OFFCURVE",
"60 53 CURVE SMOOTH",
"60 -22 OFFCURVE",
"94 -60 OFFCURVE",
"163 -60 CURVE SMOOTH"
);
},
{
closed = 1;
nodes = (
"590 -60 OFFCURVE",
"628 -18 OFFCURVE",
"628 53 CURVE SMOOTH",
"628 133 OFFCURVE",
"580 165 OFFCURVE",
"523 165 CURVE SMOOTH",
"454 165 OFFCURVE",
"420 128 OFFCURVE",
"420 53 CURVE SMOOTH",
"420 -22 OFFCURVE",
"454 -60 OFFCURVE",
"523 -60 CURVE SMOOTH"
);
},
{
closed = 1;
nodes = (
"220 1260 OFFCURVE",
"268 1292 OFFCURVE",
"268 1372 CURVE SMOOTH",
"268 1443 OFFCURVE",
"230 1485 OFFCURVE",
"163 1485 CURVE SMOOTH",
"94 1485 OFFCURVE",
"60 1447 OFFCURVE",
"60 1372 CURVE SMOOTH",
"60 1297 OFFCURVE",
"94 1260 OFFCURVE",
"163 1260 CURVE SMOOTH"
);
},
{
closed = 1;
nodes = (
"580 1260 OFFCURVE",
"628 1292 OFFCURVE",
"628 1372 CURVE SMOOTH",
"628 1443 OFFCURVE",
"590 1485 OFFCURVE",
"523 1485 CURVE SMOOTH",
"454 1485 OFFCURVE",
"420 1447 OFFCURVE",
"420 1372 CURVE SMOOTH",
"420 1297 OFFCURVE",
"454 1260 OFFCURVE",
"523 1260 CURVE SMOOTH"
);
},
{
closed = 1;
nodes = (
"400 1500 OFFCURVE",
"448 1532 OFFCURVE",
"448 1612 CURVE SMOOTH",
"448 1683 OFFCURVE",
"410 1725 OFFCURVE",
"343 1725 CURVE SMOOTH",
"274 1725 OFFCURVE",
"240 1687 OFFCURVE",
"240 1612 CURVE SMOOTH",
"240 1537 OFFCURVE",
"274 1500 OFFCURVE",
"343 1500 CURVE SMOOTH"
);
}
);
width = 688;
}
);
note = uni2D4F2D3E;
},
{
glyphname = uni2D4F2D59;
lastChange = "2016-11-10 17:37:56 +0000";
layers = (
{
layerId = "B1E53B03-7A3C-448C-A3F1-D6BA7BA0BD3F";
paths = (
{
closed = 1;
nodes = (
"1011 -20 OFFCURVE",
"1136 14 OFFCURVE",
"1253 81 CURVE SMOOTH",
"1485 216 OFFCURVE",
"1630 466 OFFCURVE",
"1630 731 CURVE SMOOTH",
"1630 868 OFFCURVE",
"1595 995 OFFCURVE",
"1526 1111 CURVE SMOOTH",
"1387 1343 OFFCURVE",
"1138 1485 OFFCURVE",
"877 1485 CURVE SMOOTH",
"740 1485 OFFCURVE",
"614 1451 OFFCURVE",
"498 1382 CURVE SMOOTH",
"266 1244 OFFCURVE",
"125 991 OFFCURVE",
"125 731 CURVE SMOOTH",
"125 594 OFFCURVE",
"159 468 OFFCURVE",
"228 353 CURVE SMOOTH",
"365 121 OFFCURVE",
"608 -20 OFFCURVE",
"877 -20 CURVE SMOOTH"
);
},
{
closed = 1;
nodes = (
"821 269 LINE",
"821 1175 LINE",
"649 1175 LINE",
"649 269 LINE"
);
},
{
closed = 1;
nodes = (
"773 139 OFFCURVE",
"677 166 OFFCURVE",
"589 220 CURVE SMOOTH",
"413 327 OFFCURVE",
"305 523 OFFCURVE",
"305 731 CURVE SMOOTH",
"305 835 OFFCURVE",
"330 933 OFFCURVE",
"381 1025 CURVE SMOOTH",
"481 1209 OFFCURVE",
"674 1325 OFFCURVE",
"877 1325 CURVE SMOOTH",
"980 1325 OFFCURVE",
"1075 1298 OFFCURVE",
"1163 1245 CURVE SMOOTH",
"1338 1137 OFFCURVE",
"1448 938 OFFCURVE",
"1448 731 CURVE SMOOTH",
"1448 624 OFFCURVE",
"1422 525 OFFCURVE",
"1371 434 CURVE SMOOTH",
"1267 251 OFFCURVE",
"1077 139 OFFCURVE",
"877 139 CURVE SMOOTH"
);
},
{
closed = 1;
nodes = (
"1179 567 OFFCURVE",
"1252 642 OFFCURVE",
"1252 731 CURVE SMOOTH",
"1252 822 OFFCURVE",
"1178 897 OFFCURVE",
"1087 897 CURVE SMOOTH",
"996 897 OFFCURVE",
"923 820 OFFCURVE",
"923 731 CURVE SMOOTH",
"923 640 OFFCURVE",
"999 567 OFFCURVE",
"1087 567 CURVE SMOOTH"
);
}
);
width = 1755;
}
);
note = uni2D4F2D59;
},
{
glyphname = uni2D4F2D5C;
lastChange = "2016-11-10 17:37:56 +0000";
layers = (
{
layerId = "B1E53B03-7A3C-448C-A3F1-D6BA7BA0BD3F";
paths = (
{
closed = 1;
nodes = (
"783 0 LINE",
"783 1300 LINE",
"1291 1300 LINE",
"1291 1462 LINE",
"92 1462 LINE",
"92 1300 LINE",
"600 1300 LINE",
"600 0 LINE"
);
}
);
width = 1383;
}
);
note = uni2D4F2D5C;
},
{
glyphname = uni2D4F2D64;
lastChange = "2016-11-10 17:37:56 +0000";
layers = (
{
layerId = "B1E53B03-7A3C-448C-A3F1-D6BA7BA0BD3F";
paths = (
{
closed = 1;
nodes = (
"1562 0 LINE",
"1562 162 LINE",
"1114 608 LINE",
"999 494 LINE",
"1080 413 OFFCURVE",
"1144 349 OFFCURVE",
"1192 302 CURVE SMOOTH",
"1239 254 OFFCURVE",
"1271 223 OFFCURVE",
"1286 210 CURVE SMOOTH",
"1349 156 LINE",
"1280 160 OFFCURVE",
"1209 162 OFFCURVE",
"1136 162 CURVE SMOOTH",
"100 162 LINE",
"100 0 LINE"
);
}
);
width = 1662;
}
);
note = uni2D4F2D64;
},
{
glyphname = uni2D542D5C;
lastChange = "2016-11-10 17:37:56 +0000";
layers = (
{
layerId = "B1E53B03-7A3C-448C-A3F1-D6BA7BA0BD3F";
paths = (
{
closed = 1;
nodes = (
"1006 -20 OFFCURVE",
"1126 10 OFFCURVE",
"1237 71 CURVE SMOOTH",
"1459 192 OFFCURVE",
"1607 417 OFFCURVE",
"1628 672 CURVE",
"1848 672 LINE",
"1848 390 LINE",
"2031 390 LINE",
"2031 672 LINE",
"2389 672 LINE",
"2389 834 LINE",
"2031 834 LINE",
"2031 1072 LINE",
"1848 1072 LINE",
"1848 834 LINE",
"1623 834 LINE",
"1607 953 OFFCURVE",
"1564 1062 OFFCURVE",
"1494 1161 CURVE SMOOTH",
"1354 1360 OFFCURVE",
"1121 1485 OFFCURVE",
"877 1485 CURVE SMOOTH",
"740 1485 OFFCURVE",
"614 1451 OFFCURVE",
"498 1382 CURVE SMOOTH",
"266 1244 OFFCURVE",
"125 991 OFFCURVE",
"125 731 CURVE SMOOTH",
"125 594 OFFCURVE",
"159 468 OFFCURVE",
"228 353 CURVE SMOOTH",
"365 121 OFFCURVE",
"608 -20 OFFCURVE",
"877 -20 CURVE SMOOTH"
);
},
{
closed = 1;
nodes = (
"773 139 OFFCURVE",
"677 166 OFFCURVE",
"589 220 CURVE SMOOTH",
"413 327 OFFCURVE",
"305 523 OFFCURVE",
"305 731 CURVE SMOOTH",
"305 835 OFFCURVE",
"330 933 OFFCURVE",
"381 1025 CURVE SMOOTH",
"481 1209 OFFCURVE",
"674 1325 OFFCURVE",
"877 1325 CURVE SMOOTH",
"980 1325 OFFCURVE",
"1075 1298 OFFCURVE",
"1163 1245 CURVE SMOOTH",
"1338 1137 OFFCURVE",
"1448 938 OFFCURVE",
"1448 731 CURVE SMOOTH",
"1448 624 OFFCURVE",
"1422 525 OFFCURVE",
"1371 434 CURVE SMOOTH",
"1267 251 OFFCURVE",
"1077 139 OFFCURVE",
"877 139 CURVE SMOOTH"
);
}
);
width = 2449;
}
);
note = uni2D542D5C;
},
{
glyphname = uni2D592D4F;
lastChange = "2016-11-10 17:37:56 +0000";
layers = (
{
layerId = "B1E53B03-7A3C-448C-A3F1-D6BA7BA0BD3F";
paths = (
{
closed = 1;
nodes = (
"962 -300 LINE",
"962 -15 LINE",
"1087 -2 OFFCURVE",
"1200 40 OFFCURVE",
"1303 111 CURVE SMOOTH",
"1507 254 OFFCURVE",
"1630 487 OFFCURVE",
"1630 731 CURVE SMOOTH",
"1630 868 OFFCURVE",
"1595 995 OFFCURVE",
"1526 1111 CURVE SMOOTH",
"1387 1343 OFFCURVE",
"1138 1485 OFFCURVE",
"877 1485 CURVE SMOOTH",
"740 1485 OFFCURVE",
"614 1451 OFFCURVE",
"498 1382 CURVE SMOOTH",
"266 1244 OFFCURVE",
"125 991 OFFCURVE",
"125 731 CURVE SMOOTH",
"125 607 OFFCURVE",
"154 490 OFFCURVE",
"213 380 CURVE SMOOTH",
"329 160 OFFCURVE",
"547 10 OFFCURVE",
"790 -15 CURVE",
"790 -300 LINE"
);
},
{
closed = 1;
nodes = (
"699 159 OFFCURVE",
"616 194 OFFCURVE",
"542 250 CURVE SMOOTH",
"393 362 OFFCURVE",
"305 544 OFFCURVE",
"305 731 CURVE SMOOTH",
"305 835 OFFCURVE",
"330 933 OFFCURVE",
"381 1025 CURVE SMOOTH",
"481 1209 OFFCURVE",
"674 1325 OFFCURVE",
"877 1325 CURVE SMOOTH",
"980 1325 OFFCURVE",
"1075 1298 OFFCURVE",
"1163 1245 CURVE SMOOTH",
"1338 1137 OFFCURVE",
"1448 938 OFFCURVE",
"1448 731 CURVE SMOOTH",
"1448 637 OFFCURVE",
"1427 548 OFFCURVE",
"1385 463 CURVE SMOOTH",
"1301 294 OFFCURVE",
"1141 173 OFFCURVE",
"962 145 CURVE",
"962 322 LINE",
"790 322 LINE",
"790 145 LINE"
);
},
{
closed = 1;
nodes = (
"969 567 OFFCURVE",
"1042 642 OFFCURVE",
"1042 731 CURVE SMOOTH",
"1042 822 OFFCURVE",
"968 897 OFFCURVE",
"877 897 CURVE SMOOTH",
"786 897 OFFCURVE",
"713 820 OFFCURVE",
"713 731 CURVE SMOOTH",
"713 640 OFFCURVE",
"789 567 OFFCURVE",
"877 567 CURVE SMOOTH"
);
}
);
width = 1755;
}
);
note = uni2D592D4F;
},
{
glyphname = uni2D592D5C;
lastChange = "2016-11-10 17:37:56 +0000";
layers = (
{
layerId = "B1E53B03-7A3C-448C-A3F1-D6BA7BA0BD3F";
paths = (
{
closed = 1;
nodes = (
"1006 -20 OFFCURVE",
"1126 10 OFFCURVE",
"1237 71 CURVE SMOOTH",
"1459 192 OFFCURVE",
"1607 417 OFFCURVE",
"1628 672 CURVE",
"1848 672 LINE",
"1848 390 LINE",
"2031 390 LINE",
"2031 672 LINE",
"2389 672 LINE",
"2389 834 LINE",
"2031 834 LINE",
"2031 1072 LINE",
"1848 1072 LINE",
"1848 834 LINE",
"1623 834 LINE",
"1607 953 OFFCURVE",
"1564 1062 OFFCURVE",
"1494 1161 CURVE SMOOTH",
"1354 1360 OFFCURVE",
"1121 1485 OFFCURVE",
"877 1485 CURVE SMOOTH",
"740 1485 OFFCURVE",
"614 1451 OFFCURVE",
"498 1382 CURVE SMOOTH",
"266 1244 OFFCURVE",
"125 991 OFFCURVE",
"125 731 CURVE SMOOTH",
"125 594 OFFCURVE",
"159 468 OFFCURVE",
"228 353 CURVE SMOOTH",
"365 121 OFFCURVE",
"608 -20 OFFCURVE",
"877 -20 CURVE SMOOTH"
);
},
{
closed = 1;
nodes = (
"773 139 OFFCURVE",
"677 166 OFFCURVE",
"589 220 CURVE SMOOTH",
"413 327 OFFCURVE",
"305 523 OFFCURVE",
"305 731 CURVE SMOOTH",
"305 835 OFFCURVE",
"330 933 OFFCURVE",
"381 1025 CURVE SMOOTH",
"481 1209 OFFCURVE",
"674 1325 OFFCURVE",
"877 1325 CURVE SMOOTH",
"980 1325 OFFCURVE",
"1075 1298 OFFCURVE",
"1163 1245 CURVE SMOOTH",
"1338 1137 OFFCURVE",
"1448 938 OFFCURVE",
"1448 731 CURVE SMOOTH",
"1448 624 OFFCURVE",
"1422 525 OFFCURVE",
"1371 434 CURVE SMOOTH",
"1267 251 OFFCURVE",
"1077 139 OFFCURVE",
"877 139 CURVE SMOOTH"
);
},
{
closed = 1;
nodes = (
"969 567 OFFCURVE",
"1042 642 OFFCURVE",
"1042 731 CURVE SMOOTH",
"1042 822 OFFCURVE",
"968 897 OFFCURVE",
"877 897 CURVE SMOOTH",
"786 897 OFFCURVE",
"713 820 OFFCURVE",
"713 731 CURVE SMOOTH",
"713 640 OFFCURVE",
"789 567 OFFCURVE",
"877 567 CURVE SMOOTH"
);
}
);
width = 2449;
}
);
note = uni2D592D5C;
},
{
glyphname = uni2D5B2D5C;
lastChange = "2016-11-10 17:37:56 +0000";
layers = (
{
layerId = "B1E53B03-7A3C-448C-A3F1-D6BA7BA0BD3F";
paths = (
{
closed = 1;
nodes = (
"1003 -20 OFFCURVE",
"1083 -7 OFFCURVE",
"1148 20 CURVE SMOOTH",
"1279 72 OFFCURVE",
"1351 169 OFFCURVE",
"1351 280 CURVE SMOOTH",
"1351 453 OFFCURVE",
"1214 579 OFFCURVE",
"1042 579 CURVE SMOOTH",
"879 579 OFFCURVE",
"749 443 OFFCURVE",
"749 283 CURVE SMOOTH",
"749 237 OFFCURVE",
"759 193 OFFCURVE",
"780 150 CURVE",
"679 150 OFFCURVE",
"554 208 OFFCURVE",
"467 299 CURVE SMOOTH",
"380 390 OFFCURVE",
"325 515 OFFCURVE",
"309 664 CURVE",
"1457 664 LINE",
"1457 365 LINE",
"1604 365 LINE",
"1604 664 LINE",
"1889 664 LINE",
"1889 809 LINE",
"1604 809 LINE",
"1604 1110 LINE",
"1457 1110 LINE",
"1457 809 LINE",
"309 809 LINE",
"318 897 OFFCURVE",
"344 979 OFFCURVE",
"387 1054 CURVE SMOOTH",
"472 1204 OFFCURVE",
"635 1311 OFFCURVE",
"780 1315 CURVE",
"759 1272 OFFCURVE",
"749 1228 OFFCURVE",
"749 1182 CURVE SMOOTH",
"749 1129 OFFCURVE",
"763 1079 OFFCURVE",
"790 1033 CURVE SMOOTH",
"844 941 OFFCURVE",
"939 886 OFFCURVE",
"1042 886 CURVE SMOOTH",
"1215 886 OFFCURVE",
"1351 1012 OFFCURVE",
"1351 1185 CURVE SMOOTH",
"1351 1240 OFFCURVE",
"1334 1291 OFFCURVE",
"1299 1337 CURVE SMOOTH",
"1229 1429 OFFCURVE",
"1097 1485 OFFCURVE",
"908 1485 CURVE SMOOTH",
"757 1485 OFFCURVE",
"623 1453 OFFCURVE",
"505 1389 CURVE SMOOTH",
"268 1261 OFFCURVE",
"125 1011 OFFCURVE",
"125 731 CURVE SMOOTH",
"125 588 OFFCURVE",
"161 458 OFFCURVE",
"232 343 CURVE SMOOTH",
"374 111 OFFCURVE",
"628 -20 OFFCURVE",
"908 -20 CURVE SMOOTH"
);
},
{
closed = 1;
nodes = (
"961 139 OFFCURVE",
"897 204 OFFCURVE",
"897 288 CURVE SMOOTH",
"897 372 OFFCURVE",
"965 440 OFFCURVE",
"1048 440 CURVE SMOOTH",
"1133 440 OFFCURVE",
"1198 371 OFFCURVE",
"1198 288 CURVE SMOOTH",
"1198 207 OFFCURVE",
"1135 139 OFFCURVE",
"1048 139 CURVE SMOOTH"
);
},
{
closed = 1;
nodes = (
"965 1025 OFFCURVE",
"897 1093 OFFCURVE",
"897 1177 CURVE SMOOTH",
"897 1261 OFFCURVE",
"961 1326 OFFCURVE",
"1048 1326 CURVE SMOOTH",
"1131 1326 OFFCURVE",
"1198 1261 OFFCURVE",
"1198 1177 CURVE SMOOTH",
"1198 1096 OFFCURVE",
"1132 1025 OFFCURVE",
"1048 1025 CURVE SMOOTH"
);
}
);
width = 1949;
}
);
note = uni2D5B2D5C;
},
{
glyphname = uni2D5C2D59;
lastChange = "2016-11-10 17:37:56 +0000";
layers = (
{
layerId = "B1E53B03-7A3C-448C-A3F1-D6BA7BA0BD3F";
paths = (
{
closed = 1;
nodes = (
"1202 0 LINE",
"1202 162 LINE",
"381 162 LINE",
"381 702 LINE",
"841 702 LINE",
"841 864 LINE",
"381 864 LINE",
"381 1462 LINE",
"199 1462 LINE",
"199 0 LINE"
);
}
);
width = 1325;
}
);
note = uni2D5C2D59;
},
{
glyphname = uni2D532D5C;
lastChange = "2016-11-10 17:37:56 +0000";
layers = (
{
layerId = "B1E53B03-7A3C-448C-A3F1-D6BA7BA0BD3F";
paths = (
{
closed = 1;
nodes = (
"874 0 LINE",
"874 678 LINE",
"1452 678 LINE",
"1452 840 LINE",
"874 840 LINE",
"874 1462 LINE",
"692 1462 LINE",
"692 840 LINE",
"113 840 LINE",
"113 678 LINE",
"692 678 LINE",
"692 0 LINE"
);
},
{
closed = 1;
nodes = (
"494 960 OFFCURVE",
"552 1022 OFFCURVE",
"552 1123 CURVE SMOOTH",
"552 1227 OFFCURVE",
"498 1285 OFFCURVE",
"401 1285 CURVE SMOOTH",
"304 1285 OFFCURVE",
"253 1227 OFFCURVE",
"253 1123 CURVE SMOOTH",
"253 1019 OFFCURVE",
"309 960 OFFCURVE",
"401 960 CURVE SMOOTH"
);
},
{
closed = 1;
nodes = (
"1255 233 OFFCURVE",
"1313 295 OFFCURVE",
"1313 396 CURVE SMOOTH",
"1313 500 OFFCURVE",
"1259 558 OFFCURVE",
"1162 558 CURVE SMOOTH",
"1065 558 OFFCURVE",
"1014 500 OFFCURVE",
"1014 396 CURVE SMOOTH",
"1014 292 OFFCURVE",
"1070 233 OFFCURVE",
"1162 233 CURVE SMOOTH"
);
}
);
width = 1567;
}
);
note = uni2D532D5C;
},
{
glyphname = uni2D622D5C;
lastChange = "2016-11-10 17:37:56 +0000";
layers = (
{
layerId = "B1E53B03-7A3C-448C-A3F1-D6BA7BA0BD3F";
paths = (
{
closed = 1;
nodes = (
"748 -185 LINE",
"748 35 LINE",
"854 -20 LINE",
"854 152 LINE",
"748 206 LINE",
"748 405 LINE",
"576 405 LINE",
"576 293 LINE",
"326 418 LINE",
"431 467 OFFCURVE",
"607 553 OFFCURVE",
"854 678 CURVE",
"854 797 LINE",
"348 1053 LINE",
"407 1080 OFFCURVE",
"575 1166 OFFCURVE",
"854 1313 CURVE",
"854 1485 LINE",
"123 1114 LINE",
"123 997 LINE",
"352 877 OFFCURVE",
"522 790 OFFCURVE",
"635 737 CURVE",
"123 477 LINE",
"123 360 LINE",
"576 124 LINE",
"576 -185 LINE"
);
}
);
width = 977;
}
);
note = uni2D622D5C;
},
{
glyphname = uni2D4C2D5C;
lastChange = "2016-11-10 17:37:56 +0000";
layers = (
{
layerId = "B1E53B03-7A3C-448C-A3F1-D6BA7BA0BD3F";
paths = (
{
closed = 1;
nodes = (
"495 0 LINE",
"495 231 LINE",
"1317 231 LINE",
"1317 0 LINE",
"1499 0 LINE",
"1499 231 LINE",
"1719 231 LINE",
"1719 393 LINE",
"1499 393 LINE",
"1499 1070 LINE",
"1719 1070 LINE",
"1719 1231 LINE",
"1499 1231 LINE",
"1499 1462 LINE",
"1317 1462 LINE",
"1317 1231 LINE",
"495 1231 LINE",
"495 1462 LINE",
"312 1462 LINE",
"312 1231 LINE",
"92 1231 LINE",
"92 1070 LINE",
"312 1070 LINE",
"312 393 LINE",
"92 393 LINE",
"92 231 LINE",
"312 231 LINE",
"312 0 LINE"
);
},
{
closed = 1;
nodes = (
"495 653 LINE",
"815 653 LINE",
"815 393 LINE",
"495 393 LINE"
);
},
{
closed = 1;
nodes = (
"495 1070 LINE",
"815 1070 LINE",
"815 815 LINE",
"495 815 LINE"
);
},
{
closed = 1;
nodes = (
"997 653 LINE",
"1317 653 LINE",
"1317 393 LINE",
"997 393 LINE"
);
},
{
closed = 1;
nodes = (
"997 1070 LINE",
"1317 1070 LINE",
"1317 815 LINE",
"997 815 LINE"
);
}
);
width = 1811;
}
);
note = uni2D4C2D5C;
},
{
glyphname = uni0301;
lastChange = "2016-11-10 17:37:33 +0000";
layers = (
{
layerId = "B1E53B03-7A3C-448C-A3F1-D6BA7BA0BD3F";
paths = (
{
closed = 1;
nodes = (
"-343 1241 LINE",
"-259 1306 OFFCURVE",
"-109 1463 OFFCURVE",
"-50 1548 CURVE",
"-50 1569 LINE",
"-267 1569 LINE",
"-322 1463 OFFCURVE",
"-387 1362 OFFCURVE",
"-462 1266 CURVE",
"-462 1241 LINE"
);
}
);
width = 0;
}
);
note = uni0301;
unicode = 0301;
},
{
glyphname = uni0302;
lastChange = "2016-11-10 17:37:33 +0000";
layers = (
{
layerId = "B1E53B03-7A3C-448C-A3F1-D6BA7BA0BD3F";
paths = (
{
closed = 1;
nodes = (
"-619 1241 LINE",
"-560 1278 OFFCURVE",
"-487 1340 OFFCURVE",
"-400 1425 CURVE",
"-311 1338 OFFCURVE",
"-237 1276 OFFCURVE",
"-177 1241 CURVE",
"-50 1241 LINE",
"-50 1264 LINE",
"-186 1400 OFFCURVE",
"-271 1502 OFFCURVE",
"-306 1569 CURVE",
"-490 1569 LINE",
"-506 1540 OFFCURVE",
"-531 1505 OFFCURVE",
"-565 1462 CURVE SMOOTH",
"-600 1419 OFFCURVE",
"-659 1353 OFFCURVE",
"-742 1264 CURVE",
"-742 1241 LINE"
);
}
);
width = 0;
}
);
note = uni0302;
unicode = 0302;
},
{
glyphname = uni0304;
lastChange = "2016-11-10 17:37:33 +0000";
layers = (
{
layerId = "B1E53B03-7A3C-448C-A3F1-D6BA7BA0BD3F";
paths = (
{
closed = 1;
nodes = (
"-50 1241 LINE",
"-50 1386 LINE",
"-658 1386 LINE",
"-658 1241 LINE"
);
}
);
width = 0;
}
);
note = uni0304;
unicode = 0304;
},
{
glyphname = uni0306;
lastChange = "2016-11-10 17:37:33 +0000";
layers = (
{
layerId = "B1E53B03-7A3C-448C-A3F1-D6BA7BA0BD3F";
paths = (
{
closed = 1;
nodes = (
"-189 1241 OFFCURVE",
"-67 1341 OFFCURVE",
"-50 1516 CURVE",
"-163 1516 LINE",
"-174 1427 OFFCURVE",
"-235 1386 OFFCURVE",
"-370 1386 CURVE SMOOTH",
"-523 1386 OFFCURVE",
"-566 1421 OFFCURVE",
"-577 1516 CURVE",
"-687 1516 LINE",
"-675 1333 OFFCURVE",
"-562 1241 OFFCURVE",
"-374 1241 CURVE SMOOTH"
);
}
);
width = 0;
}
);
note = uni0306;
unicode = 0306;
},
{
glyphname = uni0307;
lastChange = "2016-11-10 17:37:56 +0000";
layers = (
{
layerId = "B1E53B03-7A3C-448C-A3F1-D6BA7BA0BD3F";
paths = (
{
closed = 1;
nodes = (
"-99 1280 OFFCURVE",
"-50 1316 OFFCURVE",
"-50 1395 CURVE SMOOTH",
"-50 1475 OFFCURVE",
"-99 1509 OFFCURVE",
"-155 1509 CURVE SMOOTH",
"-215 1509 OFFCURVE",
"-261 1475 OFFCURVE",
"-261 1395 CURVE SMOOTH",
"-261 1316 OFFCURVE",
"-215 1280 OFFCURVE",
"-155 1280 CURVE SMOOTH"
);
}
);
width = 0;
}
);
note = uni0307;
unicode = 0307;
},
{
glyphname = uni0323;
lastChange = "2016-11-10 17:37:56 +0000";
layers = (
{
layerId = "B1E53B03-7A3C-448C-A3F1-D6BA7BA0BD3F";
paths = (
{
closed = 1;
nodes = (
"-243 -360 OFFCURVE",
"-200 -317 OFFCURVE",
"-200 -246 CURVE SMOOTH",
"-200 -166 OFFCURVE",
"-249 -131 OFFCURVE",
"-306 -131 CURVE SMOOTH",
"-365 -131 OFFCURVE",
"-413 -166 OFFCURVE",
"-413 -246 CURVE SMOOTH",
"-413 -318 OFFCURVE",
"-370 -360 OFFCURVE",
"-306 -360 CURVE SMOOTH"
);
}
);
width = 0;
}
);
note = uni0323;
unicode = 0323;
},
{
glyphname = uni0331;
lastChange = "2016-11-10 17:37:33 +0000";
layers = (
{
layerId = "B1E53B03-7A3C-448C-A3F1-D6BA7BA0BD3F";
paths = (
{
closed = 1;
nodes = (
"-193 -299 LINE",
"-193 -154 LINE",
"-801 -154 LINE",
"-801 -299 LINE"
);
}
);
width = 0;
}
);
note = uni0331;
unicode = 0331;
},
{
glyphname = uni2D4D2D4D;
lastChange = "2016-11-10 17:37:56 +0000";
layers = (
{
layerId = "B1E53B03-7A3C-448C-A3F1-D6BA7BA0BD3F";
paths = (
{
closed = 1;
nodes = (
"383 0 LINE",
"383 215 LINE",
"686 898 LINE",
"717 987 LINE",
"723 987 LINE",
"719 937 OFFCURVE",
"717 874 OFFCURVE",
"717 797 CURVE SMOOTH",
"717 0 LINE",
"899 0 LINE",
"899 1462 LINE",
"717 1462 LINE",
"717 1264 LINE",
"541 875 OFFCURVE",
"449 669 OFFCURVE",
"440 646 CURVE SMOOTH",
"431 623 OFFCURVE",
"412 570 OFFCURVE",
"383 489 CURVE",
"377 489 LINE",
"381 613 OFFCURVE",
"383 707 OFFCURVE",
"383 772 CURVE SMOOTH",
"383 1462 LINE",
"199 1462 LINE",
"199 0 LINE"
);
},
{
closed = 1;
nodes = (
"1490 0 LINE",
"1167 1422 LINE",
"997 1392 LINE",
"1313 0 LINE"
);
},
{
closed = 1;
nodes = (
"1820 0 LINE",
"1487 1462 LINE",
"1317 1432 LINE",
"1643 0 LINE"
);
}
);
width = 1970;
}
);
note = uni2D4D2D4D;
},
{
glyphname = uni2D4D2D4F;
lastChange = "2016-11-10 17:37:56 +0000";
layers = (
{
layerId = "B1E53B03-7A3C-448C-A3F1-D6BA7BA0BD3F";
paths = (
{
closed = 1;
nodes = (
"383 0 LINE",
"383 215 LINE",
"686 898 LINE",
"717 987 LINE",
"723 987 LINE",
"719 937 OFFCURVE",
"717 874 OFFCURVE",
"717 797 CURVE SMOOTH",
"717 0 LINE",
"899 0 LINE",
"899 1462 LINE",
"717 1462 LINE",
"717 1264 LINE",
"541 875 OFFCURVE",
"449 669 OFFCURVE",
"440 646 CURVE SMOOTH",
"431 623 OFFCURVE",
"412 570 OFFCURVE",
"383 489 CURVE",
"377 489 LINE",
"381 613 OFFCURVE",
"383 707 OFFCURVE",
"383 772 CURVE SMOOTH",
"383 1462 LINE",
"199 1462 LINE",
"199 0 LINE"
);
},
{
closed = 1;
nodes = (
"1490 0 LINE",
"1167 1422 LINE",
"997 1392 LINE",
"1313 0 LINE"
);
}
);
width = 1640;
}
);
note = uni2D4D2D4F;
},
{
glyphname = uni2D4F2D4D;
lastChange = "2016-11-10 17:37:56 +0000";
layers = (
{
layerId = "B1E53B03-7A3C-448C-A3F1-D6BA7BA0BD3F";
paths = (
{
closed = 1;
nodes = (
"1302 0 LINE",
"969 1462 LINE",
"799 1432 LINE",
"1125 0 LINE"
);
},
{
closed = 1;
nodes = (
"381 0 LINE",
"381 1462 LINE",
"199 1462 LINE",
"199 0 LINE"
);
},
{
closed = 1;
nodes = (
"972 0 LINE",
"649 1422 LINE",
"479 1392 LINE",
"795 0 LINE"
);
}
);
width = 1452;
}
);
note = uni2D4F2D4D;
},
{
glyphname = uni2D4F2D4F;
lastChange = "2016-11-10 17:37:56 +0000";
layers = (
{
layerId = "B1E53B03-7A3C-448C-A3F1-D6BA7BA0BD3F";
paths = (
{
closed = 1;
nodes = (
"972 0 LINE",
"649 1422 LINE",
"479 1392 LINE",
"795 0 LINE"
);
},
{
closed = 1;
nodes = (
"381 0 LINE",
"381 1462 LINE",
"199 1462 LINE",
"199 0 LINE"
);
}
);
width = 1122;
}
);
note = uni2D4F2D4F;
},
